<?xml version="1.0" encoding="utf-8"?>
<!-- Generator: Adobe Illustrator 26.0.0, SVG Export Plug-In . SVG Version: 6.00 Build 0)  -->
<svg version="1.1" id="Layer_1" xmlns="http://www.w3.org/2000/svg" xmlns:xlink="http://www.w3.org/1999/xlink" x="0px" y="0px"
	 viewBox="0 0 488.7 457.3" style="enable-background:new 0 0 488.7 457.3;" xml:space="preserve">
<style type="text/css">
	.st0{fill:#FFFFFF;}
</style>
<g>
	<path d="M0,163.8c2.7-6.8,3.9-14.9,8.3-20.3c8.7-10.4,18.6-20.1,29.2-28.6c15.1-12.1,30.2-11.7,45.8,0.7
		c16,12.8,27.8,29.2,35.7,48.1c6.1,14.6,2.7,27.7-7.9,39.1c-4.3,4.7-8.7,9.3-13.3,13.7c-4.9,4.8-6.9,10.8-4.6,17
		c3.1,8.3,6.3,16.8,11.4,23.9c26.5,37,58.4,68.8,95.3,95.4c7.6,5.5,15.7,10.1,25.3,11.7c6.2,1,11.2-0.6,15.6-5
		c4.6-4.6,9.3-9.2,14.1-13.6c11.3-10.4,24.3-13.6,38.8-7.5c19.5,8.2,36.5,20.3,49.3,37.2c11.7,15.5,11.2,30.5-1.2,45.4
		c-8,9.6-17,18.5-26.1,27.1c-9.1,8.6-20.9,9.6-32.6,9.1c-29.3-1.4-55.8-12-81-25.9c-70.2-38.9-125.6-93.6-167.9-161.6
		c-14.7-23.7-26.1-49-31.7-76.6c-0.9-4.6-1.6-9.3-2.4-14C0,174,0,168.9,0,163.8z"/>
	<path d="M417.5,217.7c11.7-6.9,22.8-13.5,33.9-20c2.8-1.6,3.9-3,3.3-6.6c-5.9-39.6-22.8-73.9-50.6-102.5
		c-27.9-28.8-61.8-46.9-101.5-53.7c-9.4-1.6-9.4-1.4-14.4,7c-4.9,8.2-9.7,16.4-14.6,24.6c-0.8,1.3-1.7,2.6-2.9,4.4
		C264,59.3,257.3,48.4,251,37.2c-1.7-2.9-3.4-3.8-6.8-3.3c-44.1,6.8-81.1,26.8-111.1,59.7c-5.9,6.4-11,13.5-16.5,20.2
		c-7.6-7.1-15.3-14.3-23.1-21.5c42.8-63.2,125.2-104,212.7-89.5c96.2,15.9,167.8,92.8,180.3,184.9C500,286.5,446.1,371.1,374,409.1
		c2.1-12,1.1-23.3-3.8-34.4c3.3-2.3,6.6-4.5,9.7-6.8c41.8-31.3,67-72.6,75-124.4c0.4-2.7-0.4-4-2.6-5.3
		C440.9,231.7,429.6,224.9,417.5,217.7z"/>
	<path d="M207.9,239.4c16.8,0,33.5,0,50.5,0c0,8.7,0,16.9,0,25.3c-27.8,0-55.4,0-83.3,0c-4.2-20.5,1.1-37.9,16.9-51.5
		c7.5-6.4,15.7-11.9,23.5-17.9c2.1-1.6,4.3-3.3,6.2-5.2c4.3-4.4,5.2-9.3,2.8-13.9c-2.1-4.1-7.6-6.7-13-6.2
		c-7.8,0.8-12.2,6.1-16.7,12.5c-7.2-4.8-14.2-9.5-21.6-14.4c2.9-7,7.7-12,13.3-16.5c15.5-12.5,41.4-12.9,57-0.8
		c15.7,12.1,18.1,36.5,4.6,52.4c-5.2,6.1-11.9,10.9-18.2,15.9c-5.2,4.1-11.2,7.3-16.4,11.4c-2.6,2-4.3,5-6.4,7.6
		C207.3,238.6,207.6,239,207.9,239.4z"/>
	<path d="M354,143.9c0,22.7,0,44.7,0,67.2c4.9,0,9.3,0,14,0c0,8.2,0,15.9,0,24.3c-4.4,0-8.9,0-13.9,0c0,10.1,0,19.5,0,29.3
		c-10,0-19.4,0-29.3,0c0-9.5,0-19,0-28.9c-18,0-35.6,0-53.4,0c-0.4-9.6-0.9-18.1,4.9-26.7c13.5-19.8,25.9-40.3,38.6-60.7
		c2.1-3.4,4.4-4.6,8.4-4.5C333.2,144.1,343.2,143.9,354,143.9z M301.4,210.8c8.1,0,15.5,0,23.4,0c0-12.9,0-25.5,0-36.9
		C317.5,185.4,309.6,197.9,301.4,210.8z"/>
	<path class="st0" d="M301.4,210.8c8.2-12.9,16.1-25.3,23.4-36.9c0,11.4,0,24,0,36.9C316.9,210.8,309.5,210.8,301.4,210.8z"/>
</g>
</svg>
