<?xml version="1.0" encoding="utf-8"?>
<!-- Generator: Adobe Illustrator 26.0.0, SVG Export Plug-In . SVG Version: 6.00 Build 0)  -->
<svg version="1.1" id="Layer_1" xmlns="http://www.w3.org/2000/svg" xmlns:xlink="http://www.w3.org/1999/xlink" x="0px" y="0px"
	 viewBox="0 0 172.9 236" style="enable-background:new 0 0 172.9 236;" xml:space="preserve">
<g>
	<g>
		<g>
			<path d="M76.7,0.4c-2.2,0.2-6.5,1-9.4,1.7c-30.4,6.8-55,29.6-63.9,59.4C0.4,71,0,74.7,0,87.9c0,12.2,0.5,16.9,2.7,26.9
				c8.8,40.4,37,83,77.8,117.3c5.9,5,5.5,4.9,9.5,1.6c30.8-24.9,58.4-60.5,71.5-92.4c10.3-25.2,13.9-51.7,9.6-72.2
				c-6.7-32.2-31.4-58.2-63-66.4C98.9,0.4,85.6-0.6,76.7,0.4z M96.5,19.1c12.8,2.2,25,8.3,34.5,17.2c8.2,7.6,14.3,17.1,17.9,27.4
				c2.2,6.4,3.2,11.9,3.5,19.3c0.8,19.5-6.1,37-20.1,50.8c-9.4,9.3-21.7,15.8-35.3,18.4c-5.9,1.2-18.2,1.2-24.1,0
				c-27.8-5.5-48.3-25.7-54.4-53.7c-1.2-5.6-1.2-20.2,0-25.9c3-13.7,8.9-24.6,18.7-34.5c11-11,23.1-17.1,39.2-19.5
				C80.1,18.1,92.5,18.3,96.5,19.1z"/>
			<path d="M75.2,44.3c-2.5,1-4.2,3.4-4.7,7l-0.3,2.2l-3.1,0.3c-3.6,0.3-6.4,1.6-8.4,3.9c-1.3,1.7-2.3,4.3-6.2,17.3
				c-1.5,5.2-1.7,5.6-2.8,5.6c-1.9,0-5,1.7-6.2,3.4c-1,1.5-1.1,1.8-1.1,11v9.4l1.3,1.9c2.2,3.3,3.8,3.8,16.4,4.9
				c21,1.8,34.1,1.7,55.1-0.2c7.6-0.8,9.2-1.1,11-2.7c2.5-2.3,2.9-4.1,2.9-13.2c0-9-0.3-10.5-2.5-12.5c-0.7-0.6-2-1.4-3-1.7
				c-2-0.7-1.3,1.1-6.6-16.3c-1.5-4.9-1.8-5.6-3.9-7.6c-2.5-2.5-4.8-3.3-9.2-3.3h-3.1V52c0-3.3-2.3-6.6-5.3-7.7
				C93.7,43.6,76.8,43.7,75.2,44.3z M107,63.5c0.6,0.7,5.6,15.8,5.6,16.8c0,0.1-11.8,0.3-26.2,0.3c-24.7,0-26.2,0-26-0.8
				c2.6-9.1,4.8-15.6,5.4-16.3c0.7-0.8,2.3-0.8,20.6-0.8S106.3,62.7,107,63.5z M58.8,88.6c2,0.6,3.9,2.7,4.3,5
				c0.7,3.4-2.5,7.3-5.9,7.3c-3.8,0-6.6-2.7-6.6-6.5c0-2.3,1.7-4.6,4-5.6C56.5,88.1,56.6,88.1,58.8,88.6z M119.9,89.4
				c4.8,3.2,3,10.8-2.8,11.4c-3.8,0.4-6.9-2.3-6.9-6.1C110.2,89.7,115.7,86.7,119.9,89.4z"/>
			<path d="M49.8,116.9c0,5.3,2.3,8.2,6.6,8.2c4.1,0,6.6-2.9,6.6-7.6c0-2.2-0.1-2.5-1-2.5c-0.6,0-3.6-0.3-6.6-0.6l-5.6-0.6V116.9
				L49.8,116.9z"/>
			<path d="M119.4,114.1c-1.6,0.2-4.5,0.5-6.5,0.7l-3.7,0.3v2.5c0,3.3,1.2,5.4,3.8,6.8c1.1,0.6,2.5,1.1,3.1,1.1c1.8,0,5.1-2.1,6-3.8
				c0.8-1.7,1.3-8.1,0.5-8C122.3,113.7,120.9,113.9,119.4,114.1z"/>
		</g>
	</g>
</g>
</svg>
