<?xml version="1.0" encoding="utf-8"?>
<!-- Generator: Adobe Illustrator 26.0.0, SVG Export Plug-In . SVG Version: 6.00 Build 0)  -->
<svg version="1.1" id="Layer_1" xmlns="http://www.w3.org/2000/svg" xmlns:xlink="http://www.w3.org/1999/xlink" x="0px" y="0px"
	 viewBox="0 0 150 40.4" style="enable-background:new 0 0 150 40.4;" xml:space="preserve">
<style type="text/css">
	.st0{fill:#1ECB15;}
	.st1{fill:#FFFFFF;}
</style>
<g>
	<path class="st0" d="M118,25.6c0-8.6,0-17,0-25.6c0.3,0,0.6-0.1,0.9-0.1c7.8,0,15.7,0,23.5,0c5.9,0,8.3,5.4,6.5,10
		c-0.2,0.5-0.5,1-0.9,1.4c-0.3,0.4-0.7,0.8-1.2,1.3c1.6,1.1,2.6,2.5,3,4.4c0.9,4.5-2,8.3-6.6,8.6c-0.4,0-0.8,0-1.1,0
		C134.1,25.6,126.1,25.6,118,25.6z M123.9,15.8c0,1.4,0,2.6,0,4c4.4,0,8.7,0,13,0c1.8,0,3.7,0,5.5,0c0.7,0,1.2-0.1,1.5-0.8
		c0.8-1.8-0.1-3.2-2-3.2c-5.6,0-11.2,0-16.8,0C124.7,15.7,124.3,15.8,123.9,15.8z M123.9,9.9c6.2,0,12.4,0,18.5,0
		c0.4,0,0.9-0.3,1.1-0.7c1-1.7,0-3.3-1.9-3.3c-5.5,0-11.1,0-16.6,0c-0.3,0-0.7,0-1.1,0.1C123.9,7.3,123.9,8.5,123.9,9.9z"/>
	<path class="st0" d="M54.3,25.6c0-8.6,0-17,0-25.6c0.3,0,0.6-0.1,0.8-0.1C63,0,70.9,0,78.7,0c3.5,0,6.3,2.2,6.8,5.3
		c0.5,2.5,0.2,5-2.3,7.2c0.7,0.9,1.7,1.7,2.2,2.7c2.1,4.4-0.1,10.3-6.4,10.4c-6.2,0-12.4,0-18.6,0C58.4,25.6,56.4,25.6,54.3,25.6z
		 M60.1,19.8c1.5,0,2.9,0,4.2,0c4.7,0,9.5,0,14.2,0c0.5,0,1.4-0.3,1.5-0.6c0.2-0.9,0.3-1.8,0.1-2.7c-0.2-0.8-1.1-0.7-1.8-0.7
		c-5.8,0-11.6,0-17.3,0c-0.3,0-0.6,0.1-0.9,0.1C60.1,17.1,60.1,18.3,60.1,19.8z M60.1,9.8c0.3,0,0.4,0.1,0.6,0.1c6,0,11.9,0,17.9,0
		c0.3,0,0.8-0.1,1-0.4c0.7-0.8,0.6-1.8,0.3-2.8c-0.3-0.8-1-0.8-1.7-0.8c-2.4,0-4.8,0-7.2,0c-3.2,0-6.5,0-9.7,0c-0.4,0-1-0.2-1,0.6
		C60.1,7.6,60.1,8.6,60.1,9.8z"/>
	<path d="M101.2,25.6c-3.8,0-7.6,0-11.4,0c-1.4,0-1.4,0-1.5-1.5c0-2.4-0.1-4.7,0.7-7c1.4-4,4.3-6.3,8.4-6.8
		c3.3-0.4,6.7-0.3,10.1-0.4c1.6,0,2-0.5,2-1.9c0-1.6-0.5-2.1-2-2.1c-5.5,0-11.1,0-16.6,0c-1,0-1.4-0.3-1.4-1.3c0.1-1.2,0-2.4,0-3.6
		c0-0.6,0.2-0.9,0.9-0.9c6,0,11.9-0.1,17.9,0c4.4,0.1,7.6,4.3,6.9,8.9c-0.5,3.2-2.1,5.5-5.3,6.4c-0.7,0.2-1.4,0.2-2.2,0.2
		c-2.9,0.1-5.7,0.1-8.6,0.2c-1.9,0.1-3.5,0.9-4.2,2.9c-0.3,1-0.2,1.2,0.9,1.2c5.5,0,11.1,0,16.6,0c1.6,0,1.6,0,1.6,1.6
		c0,1-0.1,2,0,2.9c0.1,1.1-0.3,1.3-1.3,1.3C108.9,25.6,105,25.6,101.2,25.6z"/>
	<path d="M7.3,31.1c-2.2-2.4-4.4-4.8-6.6-7.2c0,0,0-0.1-0.1-0.1C0.5,23,0,22.1,0.3,21.5c0.2-0.5,1.4-0.7,2.1-0.7
		c10.2,0,20.3,0,30.5-0.1c0.4,0,0.9-0.3,1.3-0.5c-0.4-0.2-0.9-0.5-1.3-0.5c-10.1,0-20.2,0-30.3-0.1c-0.8,0-2-0.2-2.4-0.8
		c-0.6-0.8,0.1-1.8,0.7-2.5C3,14,5.2,11.7,7.3,9.5c1.3,0.8,1.3,0.9,0.4,1.7c-1.4,1.4-2.7,2.7-4.1,4.1c-0.5,0.5-1,1-1.4,1.6
		c-0.6,0.9-0.4,1.4,0.7,1.4c6.1,0,12.3,0,18.4,0c0.4,0,0.8-0.2,1.1-0.5c1.5-1.4,3-3,4.4-4.4c2.4-2.4,4.8-2.3,7.2,0
		c2,2,4.1,4.1,6.1,6.1c0.6,0.6,0.7,0.9,0,1.5c-2.1,2.1-4.2,4.2-6.3,6.3c-2.2,2.2-4.7,2.3-7,0c-1.5-1.5-3-3-4.5-4.5
		c-0.3-0.3-0.8-0.5-1.3-0.5c-6,0-12,0-18,0c-0.4,0-1,0.2-1.1,0.4C2,23,2.2,23.6,2.5,23.9c1.7,1.8,3.5,3.6,5.3,5.4
		C8.6,30.2,8.6,30.2,7.3,31.1z"/>
	<path class="st0" d="M29,8.9c-2.4,2.5-4.8,5.1-7.4,7.5c-1.7,1.6-4.2,1.6-5.9,0c-2.6-2.5-5-5-7.6-7.7c1.4-1.4,2.9-2.8,4.3-4.2
		c1.1-1.1,2.1-2.2,3.3-3.2c1.6-1.4,4.1-1.6,5.6-0.2C24,3.6,26.4,6.3,29,8.9z"/>
	<path class="st0" d="M8.2,31.7c2.5-2.6,5-5.1,7.5-7.6c1.7-1.6,4.2-1.6,6,0c2.5,2.4,4.9,5,7.4,7.5c0,0,0,0.1,0,0.1
		c-2.5,2.5-5,5.1-7.5,7.5c-1.7,1.6-4.2,1.5-5.9-0.1C13.1,36.8,10.7,34.2,8.2,31.7z"/>
	<path d="M102,39.6c15.5,0,30.9,0,46.4,0c0.4,0,0.9,0.3,1.3,0.4c-0.4,0.1-0.9,0.3-1.3,0.3c-30.9,0-61.8,0-92.7,0
		c-0.5,0-0.9-0.2-1.4-0.4c0.4-0.1,0.9-0.4,1.3-0.4C71.1,39.6,86.6,39.6,102,39.6z"/>
	<path d="M62.6,29.4c0,0.6,0,1,0,1.6c-1.3,0-2.5,0-3.7,0c-0.7,0-1.3-0.1-2,0c-0.4,0.1-0.9,0.3-0.9,0.6c-0.2,0.7,0.4,0.6,0.9,0.6
		c1.3,0,2.6,0,3.9,0c1.4,0,2.3,0.9,2.3,2.3c0,1.3-0.9,2.2-2.2,2.2c-2,0-4,0-6.1,0c0-0.5,0-1,0-1.6c1.6,0,3.3,0,4.9,0
		c0.4,0,0.8,0.1,1.1,0c0.3-0.1,0.5-0.4,0.7-0.6c-0.2-0.2-0.5-0.6-0.7-0.7c-1.4-0.1-2.9,0-4.3,0c-1.2,0-2-0.8-2.1-2
		c-0.1-1.4,0.6-2.4,1.9-2.4C58.2,29.3,60.3,29.4,62.6,29.4z"/>
	<path d="M149.5,29.4c0,0.5,0,1,0,1.6c-1.6,0-3.3,0-4.9,0c-0.4,0-0.8-0.1-1.1,0c-0.3,0.1-0.4,0.4-0.6,0.6c0.2,0.2,0.4,0.6,0.7,0.6
		c1.3,0.1,2.6,0,4,0c1.5,0,2.4,0.8,2.5,2.2c0,1.4-0.9,2.3-2.5,2.3c-1.9,0-3.9,0-5.9,0c0-0.6,0-1,0-1.6c1.7,0,3.4,0,5,0
		c0.3,0,0.7,0.1,0.9,0c0.3-0.1,0.5-0.4,0.8-0.6c-0.3-0.2-0.5-0.6-0.8-0.6c-1.4-0.1-2.8,0-4.2,0c-1.3,0-2.1-0.7-2.2-1.9
		c-0.1-1.4,0.5-2.4,1.8-2.5C145.2,29.3,147.3,29.4,149.5,29.4z"/>
	<path d="M130,32.2c1.9,0,3.8,0,5.7,0c0,0.6,0,1,0,1.6c-1.9,0-3.8,0-5.6,0c-0.3,1-0.1,1.4,0.9,1.3c1.7-0.1,3.4,0,5.1,0
		c0,0.6,0,1,0,1.6c-2.6,0-5.1,0-7.7,0c0-2.4,0-4.8,0-7.2c2.5,0,5.1,0,7.7,0c0,0.5,0,0.9,0,1.5c-1.8,0-3.5,0-5.2,0
		C130,30.9,129.7,31.2,130,32.2z"/>
	<path d="M68.1,29.3c1.4,0,2.8,0,4.2,0c0.8,0,1.5,0,2.3,0c1.4,0,1.4,0,1.2,1.6c-2,0-4,0-6,0c0,0.5,0,0.9,0,1.3c1.9,0,3.7,0,5.7,0
		c0,0.6,0,1,0,1.6c-1.9,0-3.7,0-5.7,0c0,0.5,0,0.8-0.1,1.3c2.1,0,4.1,0,6.1,0c0,0.6,0,1.1,0,1.6c-2.6,0-5.1,0-7.7,0
		C68.1,34.3,68.1,31.9,68.1,29.3z"/>
	<path d="M87.5,34.4c0.6,0.7,1.2,1.4,1.9,2.2c-1.2,0.1-2.2,0.3-3-0.9c-0.8-1.1-1.7-2-2.8-3.2c1.4,0,2.6,0,3.8,0c0.6,0,1-0.1,1-0.8
		c0-0.7-0.5-0.9-1-0.9c-1.4,0-2.7,0-4.1,0c-0.7,0-0.9,0.3-0.9,0.9c0,1.6,0,3.2,0,4.8c-0.6,0-1,0-1.6,0c0-1.7,0-3.4,0-5.1
		c0-2.3,0-2.3,2.3-2.3c1.4,0,2.9,0,4.3,0c1.7,0,2.5,0.8,2.6,2.3c0.1,1.5-0.7,2.4-2.4,2.6C87.7,34.3,87.7,34.3,87.5,34.4z"/>
	<path d="M123.2,35.1c0,0.6,0,1,0,1.6c-2,0-3.9,0.1-5.9,0c-1.3-0.1-2.1-1-2.1-2.3c0-0.9,0-1.8,0-2.7c0.1-1.2,0.7-2.1,1.8-2.2
		c2-0.1,4.1,0,6.2,0c0,0.5,0,0.9,0,1.5c-1.7,0-3.3,0-4.9,0c-1.3,0-1.5,0.2-1.5,1.5c0,2.9-0.2,2.7,2.6,2.7
		C120.6,35.1,121.9,35.1,123.2,35.1z"/>
	<path d="M94.8,29.5c1.2-0.4,1.9,0,2.4,1c0.6,1.3,1.3,2.5,2.1,4c0.8-1.5,1.5-2.7,2-4c0.5-1.1,1.1-1.4,2.3-1
		c-1.2,2.3-2.3,4.7-3.6,6.9c-0.3,0.5-1.4,0.5-1.7-0.1C97.2,34,96,31.8,94.8,29.5z"/>
	<path d="M110.1,36.7c-0.6,0-1,0-1.6,0c0-2.3,0-4.5,0-6.8c0-0.2,0.5-0.5,0.8-0.5c0.3,0,0.8,0.3,0.8,0.5
		C110.1,32.1,110.1,34.4,110.1,36.7z"/>
	<path class="st1" d="M123.9,15.8c0.4,0,0.8-0.1,1.2-0.1c5.6,0,11.2,0,16.8,0c1.9,0,2.8,1.4,2,3.2c-0.3,0.7-0.9,0.8-1.5,0.8
		c-1.8,0-3.7,0-5.5,0c-4.3,0-8.6,0-13,0C123.9,18.4,123.9,17.1,123.9,15.8z"/>
	<path class="st1" d="M123.9,9.9c0-1.4,0-2.6,0-4c0.4,0,0.7-0.1,1.1-0.1c5.5,0,11.1,0,16.6,0c1.9,0,2.9,1.7,1.9,3.3
		c-0.2,0.3-0.7,0.7-1.1,0.7C136.2,9.9,130.1,9.9,123.9,9.9z"/>
	<path class="st1" d="M60.1,19.8c0-1.4,0-2.6,0-3.9c0.3,0,0.6-0.1,0.9-0.1c5.8,0,11.6,0,17.3,0c0.7,0,1.6-0.1,1.8,0.7
		c0.2,0.9,0.1,1.9-0.1,2.7c-0.1,0.3-1,0.6-1.5,0.6c-4.7,0-9.5,0-14.2,0C62.9,19.8,61.6,19.8,60.1,19.8z"/>
	<path class="st1" d="M60.1,9.8c0-1.2,0-2.2,0-3.3c0-0.8,0.6-0.6,1-0.6c3.2,0,6.5,0,9.7,0c2.4,0,4.8,0,7.2,0c0.7,0,1.4,0,1.7,0.8
		c0.3,1,0.4,1.9-0.3,2.8c-0.2,0.2-0.7,0.4-1,0.4c-6,0-11.9,0-17.9,0C60.5,9.9,60.3,9.8,60.1,9.8z"/>
</g>
</svg>
