<?xml version="1.0" encoding="utf-8"?>
<!-- Generator: Adobe Illustrator 25.2.0, SVG Export Plug-In . SVG Version: 6.00 Build 0)  -->
<svg version="1.1" id="Layer_1" xmlns="http://www.w3.org/2000/svg" xmlns:xlink="http://www.w3.org/1999/xlink" x="0px" y="0px"
	 viewBox="0 0 523.34 99.4" style="enable-background:new 0 0 523.34 99.4;" xml:space="preserve">
<style type="text/css">
	.st0{fill:#089848;}
</style>
<g>
	<path class="st0" d="M59.48,77.92V82c-8.28-6.84-21.72-18.24-22.2-18.72l8.28,3l10.68,9C56.24,75.28,57.56,76.36,59.48,77.92z"/>
	<path class="st0" d="M60.44,44.92c0,0-13.08,8.64-15.84,18.6l-10.68-3.96c0,0-3.24-8.76,4.68-17.88c6.6-7.56,11.16-6.84,15.96-6.48
		L60.44,44.92z"/>
	<polygon class="st0" points="85.16,59.44 80.48,59.44 74.12,54.4 74.24,54.4 62.24,44.2 58.88,37.96 	"/>
	<path class="st0" d="M90.8,62.08l2.76,2.28L90.8,62.08z M99.32,73.72V84.4h0.12V73.72H99.32z"/>
	<polygon class="st0" points="99.44,99.16 99.44,99.4 73.64,99.4 73.64,73.72 99.32,73.72 99.32,84.4 	"/>
	<polygon class="st0" points="99.44,73.72 99.44,99.16 99.32,84.4 99.32,73.72 	"/>
	<path class="st0" d="M99.32,59.44h-7.8l-0.96-2.52L86,57.88L62.6,37.84l2.16-3.24l-4.8,0.12L47.12,23.8
		c-0.6-0.48-1.2-0.84-2.04-1.08c-1.92-0.36-3.6-0.6-5.16-0.72c-6.36-0.36-12.24,2.28-16.2,6.96l-1.08,1.32
		c-6.36,7.68-4.32,17.04-3.24,20.52c0.24,0.84,0.72,1.56,1.44,2.16l13.92,11.76l0.6,5.28l2.76-3.36L59.48,84.4l6,5.16l-6-1.32V99.4
		H48.2C22.64,98.68,1.4,78.16,0.08,52.6C-1.6,23.08,22.4-1.16,51.68,0.04C76.76,1,97.4,20.92,99.2,45.88
		c0.12,0.48,0.12,0.96,0.12,1.32V59.44z"/>
	<polygon class="st0" points="93.56,64.36 90.8,62.08 87.8,59.44 86,57.88 90.56,56.92 91.52,59.44 	"/>
	<polygon class="st0" points="93.56,64.36 93.56,64.36 90.8,62.08 	"/>
</g>
<g>
	<path d="M125.98,39.39h17.06c1.69,0,3.19,0.37,4.87,0.94c1.87,0.75,3.19,1.69,4.5,2.81c1.12,1.12,1.69,2.62,1.87,4.5
		c-0.19,1.87-0.75,3.19-1.87,4.31c-1.31,0.94-2.62,1.69-4.5,2.06c-1.69,0.56-3.19,0.75-4.87,0.75h-17.06V39.39z M125.98,15.96h17.06
		c2.44,0,4.31,0.56,5.62,1.31c1.31,0.75,2.25,1.87,2.81,2.81c0.75,1.12,0.94,2.25,0.94,3.19c0,1.69-0.56,3.19-2.06,4.5
		c-1.31,1.12-3.75,1.87-7.31,1.87h-17.06V15.96z M143.04,5.84c-9.37,0-18.74,0-28.12,0v59.23c9.37,0,18.74,0,28.12,0
		c4.12,0.19,7.87-0.37,11.25-1.5c3.37-1.12,6-3,8.06-5.44c1.87-2.62,2.81-6.19,3-10.5c0-1.31-0.37-2.81-0.94-4.5
		c-0.56-1.87-1.69-3.56-3-5.25c-1.5-1.5-3.37-2.62-5.62-3.37c2.81-1.31,4.69-3,6-5.06c1.12-1.87,1.69-4.12,1.69-6.37
		c0-4.12-0.94-7.31-2.62-9.75c-1.87-2.62-4.12-4.5-7.31-5.81C150.54,6.4,146.97,5.84,143.04,5.84z"/>
	<path d="M183.52,23.09c0-1.87,0.75-3.37,1.87-4.69c1.12-1.12,2.62-2.06,4.5-2.81c1.69-0.56,3.56-0.94,5.62-0.94
		c3.94,0,7.12,0.75,9.56,2.44c2.62,1.5,3.94,3.94,3.94,7.12c0,2.25-0.94,3.94-2.25,5.06c-1.5,1.12-3.19,1.87-5.25,2.06
		c-1.87,0.37-3.75,0.56-5.25,0.56c-3.94-0.19-7.87,0.37-11.43,1.5c-3.75,1.12-6.75,2.81-9,5.44c-2.44,2.62-3.56,6.19-3.75,10.68
		c0,5.25,0,10.5,0,15.56h48.17V54.76h-36.92V49.7c0-2.25,0.75-3.75,2.25-4.87s3.19-1.87,5.25-2.25c1.87-0.37,3.75-0.56,5.44-0.56
		c4.31,0,8.06-0.56,11.81-1.5c3.56-0.75,6.37-2.62,8.62-5.25c2.25-2.62,3.37-6.37,3.37-11.25c-0.19-4.69-1.31-8.43-3.75-11.25
		c-2.44-2.81-5.62-4.69-9.37-6c-3.56-1.12-7.5-1.69-11.62-1.69c-3.75,0-7.31,0.56-10.68,1.87c-3.56,1.12-6.37,3.19-8.62,5.81
		c-2.25,2.62-3.56,6-3.56,10.31C172.47,23.09,183.52,23.09,183.52,23.09z"/>
	<path d="M239.38,39.39h17.24c1.5,0,3.19,0.37,4.87,0.94c1.69,0.75,3.19,1.69,4.31,2.81c1.12,1.12,1.87,2.62,1.87,4.5
		s-0.75,3.19-1.87,4.31c-1.12,0.94-2.62,1.69-4.31,2.06c-1.69,0.56-3.37,0.75-4.87,0.75h-17.24V39.39z M239.38,15.96h17.24
		c2.25,0,4.12,0.56,5.62,1.31c1.31,0.75,2.25,1.87,2.81,2.81c0.56,1.12,0.75,2.25,0.75,3.19c0.19,1.69-0.56,3.19-1.87,4.5
		c-1.5,1.12-3.94,1.87-7.31,1.87h-17.24V15.96z M256.62,5.84c-9.56,0-18.93,0-28.3,0v59.23c9.56,0,18.93,0,28.3,0
		c4.12,0.19,7.87-0.37,11.06-1.5c3.37-1.12,6-3,8.06-5.44c1.87-2.62,3-6.19,3-10.5c0-1.31-0.19-2.81-0.94-4.5
		c-0.56-1.87-1.5-3.56-3-5.25c-1.31-1.5-3.19-2.62-5.44-3.37c2.62-1.31,4.5-3,5.81-5.06c1.12-1.87,1.87-4.12,1.87-6.37
		c-0.19-4.12-0.94-7.31-2.81-9.75c-1.69-2.62-4.12-4.5-7.12-5.81C263.93,6.4,260.56,5.84,256.62,5.84z"/>
	<path class="st0" d="M340.41,57.2l-5.06-5.06c-4.69,4.69-10.31,6.94-17.06,6.94c-7.5,0-13.31-2.25-17.24-6.75
		c-4.12-4.5-6.19-10.12-6.19-16.68c-0.19-6.56,1.87-12.18,6-16.87c4.12-4.5,9.93-6.94,17.43-6.94c6.75,0,12.18,2.25,16.68,6.75
		l5.06-4.87c-6-5.81-13.31-8.81-21.74-8.81c-6.56,0-12.37,1.5-17.06,4.5c-4.87,3-8.43,6.75-10.5,11.43
		c-2.25,4.5-3.37,9.56-3.37,14.99c0.19,8.43,2.81,15.56,8.25,21.37c5.25,6,12.93,8.81,22.68,8.81
		C327.1,66.01,334.41,63.2,340.41,57.2z"/>
	<path class="st0" d="M372.08,5.84l-26.62,59.23h8.06l5.81-12.93h33.93l5.81,12.93h8.06L380.52,5.84
		C380.52,5.84,372.08,5.84,372.08,5.84z M390.45,45.39h-28.3l14.24-32.05L390.45,45.39z"/>
	<path class="st0" d="M417.63,5.84v59.23h25.87c3,0,5.81-0.19,8.25-0.75c2.44-0.56,4.69-1.31,6.94-2.62
		c2.06-1.12,3.75-2.81,4.87-5.06c1.12-2.25,1.87-4.87,1.87-7.87c0-3-0.94-5.81-2.81-8.62c-1.87-2.62-4.5-4.5-7.87-5.44
		c2.81-1.12,4.87-2.81,6.37-4.87c1.69-2.25,2.44-4.69,2.44-7.5c0-5.25-1.87-9.37-5.81-12.37c-3.75-2.81-8.43-4.12-14.25-4.12
		C443.5,5.84,417.63,5.84,417.63,5.84z M424.94,12.4h18.56c3.94,0,6.94,0.94,9.18,2.62c2.44,1.69,3.56,4.31,3.56,7.5
		c0,3-1.12,5.25-3.37,6.56c-2.25,1.5-5.25,2.25-9,2.25h-18.93V12.4z M424.94,38.08h18.93c3.75,0,6.94,0.75,9.75,2.62
		c2.81,1.69,4.31,4.31,4.31,7.87c0,1.87-0.37,3.56-1.31,4.87c-0.75,1.31-2.06,2.25-3.56,2.81c-1.5,0.75-3,1.31-4.5,1.5
		c-1.69,0.37-3.19,0.37-5.06,0.37h-18.56V38.08z"/>
	<path class="st0" d="M516.03,18.77l5.62-3.56c-2.44-4.12-5.62-6.94-9.37-8.43c-3.75-1.5-8.06-2.25-13.12-2.25
		c-2.81,0-5.44,0.19-7.87,0.75c-2.62,0.75-5.06,1.69-7.31,2.81c-2.44,1.31-4.12,3-5.62,5.25c-1.31,2.25-2.06,4.87-2.06,7.87
		c0,2.25,0.56,4.31,1.5,6c0.75,1.87,1.87,3.37,3.19,4.31c1.31,1.12,3,2.06,5.06,3c2.25,0.75,4.31,1.5,6.19,1.87
		c1.69,0.37,3.94,0.75,6.75,1.12c2.62,0.56,4.69,0.94,6.56,1.31c1.69,0.56,3.56,1.12,5.25,1.87c1.69,0.75,3.19,1.87,3.94,3.19
		c0.94,1.31,1.31,2.81,1.31,4.5c0,2.25-0.56,3.94-1.5,5.44c-1.12,1.5-2.44,2.62-4.12,3.37c-1.69,0.94-3.56,1.5-5.44,1.69
		c-1.87,0.37-3.75,0.56-5.62,0.56c-3.94,0-7.68-0.94-11.06-2.62c-3.56-1.87-6.37-4.5-8.06-7.68l-6.19,3.56
		c2.25,4.69,5.44,8.06,9.93,10.31s9.56,3.37,15.18,3.37c3,0,5.81-0.37,8.62-0.94c2.62-0.56,5.25-1.69,7.68-3
		c2.44-1.12,4.31-3,5.81-5.44c1.31-2.44,2.06-5.06,2.06-8.25c0-2.62-0.37-4.87-1.31-6.94c-0.94-1.87-2.06-3.37-3.37-4.5
		c-1.31-1.12-3.19-2.25-5.44-3.19c-2.44-0.75-4.5-1.5-6.37-1.87c-1.69-0.37-4.12-0.75-7.12-1.12c-2.44-0.56-4.5-0.94-6.19-1.31
		c-1.69-0.37-3.37-0.94-5.06-1.69c-1.69-0.75-2.81-1.69-3.56-2.81c-0.94-1.12-1.31-2.44-1.31-3.94c0-3.37,1.69-6,4.69-7.68
		c3.19-1.69,6.75-2.62,11.06-2.62c3.37,0.19,6.75,0.75,9.75,2.06C512.1,14.46,514.53,16.34,516.03,18.77z"/>
	<path d="M125.61,80.07l-6.56,14.62h2.06l1.31-3.19h8.25l1.5,3.19h1.87l-6.37-14.62H125.61z M130.11,89.81h-6.94l3.37-7.87
		L130.11,89.81z"/>
	<path d="M153.35,92.62l-1.12-1.12c-1.12,1.12-2.62,1.69-4.12,1.69c-1.87,0-3.37-0.56-4.31-1.69c-0.94-1.12-1.5-2.44-1.5-4.12
		c0-1.5,0.56-3,1.5-4.12c0.94-1.12,2.44-1.69,4.31-1.69c1.5,0,3,0.56,3.94,1.69l1.31-1.12c-1.5-1.5-3.19-2.25-5.25-2.25
		c-1.69,0-3,0.37-4.31,1.12c-1.12,0.75-2.06,1.69-2.44,2.81c-0.56,1.12-0.94,2.25-0.94,3.56c0,2.25,0.75,3.94,2.06,5.25
		c1.31,1.5,3.19,2.25,5.62,2.25C150.16,94.87,152.04,94.12,153.35,92.62z"/>
	<path d="M162.53,79.88c-2.25,0-4.12,0.75-5.44,2.06c-1.31,1.5-2.06,3.37-2.06,5.44c0,0.94,0.19,1.87,0.56,2.81
		c0.19,0.94,0.75,1.69,1.31,2.44c0.56,0.75,1.31,1.31,2.25,1.69c1.12,0.37,2.06,0.56,3.37,0.56c1.12,0,2.25-0.19,3.19-0.56
		c0.94-0.37,1.69-0.94,2.25-1.69c0.56-0.75,1.12-1.5,1.31-2.44c0.37-0.94,0.56-1.87,0.56-2.81c0-2.06-0.56-3.75-1.87-5.25
		C166.66,80.63,164.78,79.88,162.53,79.88z M167.97,87.38c0,1.69-0.37,3-1.31,4.12c-0.94,1.12-2.44,1.69-4.12,1.69
		c-1.87,0-3.19-0.56-4.12-1.69c-0.94-1.12-1.5-2.44-1.5-4.12s0.56-3,1.5-4.12c0.94-1.12,2.25-1.69,4.12-1.69
		c1.12,0,2.25,0.19,3,0.94c0.94,0.56,1.5,1.31,1.87,2.06C167.78,85.5,167.97,86.44,167.97,87.38z"/>
	<polygon points="185.77,82.69 185.77,94.69 187.46,94.69 187.46,80.07 185.4,80.07 180.34,87.56 175.28,80.07 173.03,80.07 
		173.03,94.69 174.9,94.69 174.9,82.69 180.15,90 180.53,90 	"/>
	<path d="M193.46,90h4.87c0.94,0,1.69-0.19,2.44-0.56c0.75-0.37,1.12-0.94,1.5-1.5c0.37-0.56,0.75-1.12,0.94-1.87
		c0.19-0.75,0.19-1.31,0-2.06c-0.19-0.75-0.56-1.31-0.94-1.87c-0.37-0.56-0.75-1.12-1.5-1.5c-0.75-0.37-1.5-0.56-2.44-0.56h-6.75
		v14.62h1.87V90z M198.33,88.31h-4.87v-6.56h4.87c0.56,0,1.12,0.19,1.69,0.56c0.56,0.37,0.94,0.75,1.12,1.12
		c0.19,0.56,0.37,1.12,0.37,1.69c0,0.37-0.19,0.94-0.37,1.5c-0.19,0.37-0.56,0.94-1.12,1.12C199.46,88.13,198.89,88.31,198.33,88.31
		z"/>
	<polygon points="207.89,80.07 206.2,80.07 206.2,94.69 215.76,94.69 215.76,93 207.89,93 	"/>
	<polygon points="218.39,94.69 228.88,94.69 228.88,93 220.26,93 220.26,87.94 228.32,87.94 228.32,86.25 220.26,86.25 
		220.26,81.75 228.7,81.75 228.7,80.07 218.39,80.07 	"/>
	<polygon points="235.63,81.75 235.63,94.69 237.32,94.69 237.32,81.75 242.38,81.75 242.38,80.07 230.57,80.07 230.57,81.75 	"/>
	<polygon points="244.82,94.69 255.5,94.69 255.5,93 246.69,93 246.69,87.94 254.75,87.94 254.75,86.25 246.69,86.25 246.69,81.75 
		255.12,81.75 255.12,80.07 244.82,80.07 	"/>
	<polygon points="266.75,81.75 266.75,94.69 268.62,94.69 268.62,81.75 273.49,81.75 273.49,80.07 261.87,80.07 261.87,81.75 	"/>
	<path d="M285.86,94.69h2.25l-4.69-5.44c1.31-0.19,2.44-0.56,3.19-1.5c0.56-0.75,0.94-1.87,0.94-3c0-1.31-0.37-2.44-1.31-3.19
		c-0.75-0.94-2.06-1.5-3.56-1.5h-6.56v14.62h1.69v-5.25h3.56L285.86,94.69z M282.49,87.75h-4.69v-6h4.87c0.94,0,1.69,0.37,2.25,0.94
		c0.56,0.56,0.94,1.31,0.75,2.06c0,0.94-0.19,1.69-0.75,2.25C284.36,87.56,283.61,87.75,282.49,87.75z"/>
	<path d="M295.98,80.07l-6.37,14.62h1.87l1.5-3.19h8.25l1.31,3.19h2.06l-6.56-14.62H295.98z M300.48,89.81h-6.94l3.56-7.87
		L300.48,89.81z"/>
	<polygon points="307.23,80.07 307.23,94.69 308.92,94.69 308.92,83.63 317.91,94.69 319.04,94.69 319.04,80.07 317.35,80.07 
		317.35,91.31 308.36,80.07 	"/>
	<path d="M332.35,83.25l1.31-0.75c-0.56-1.12-1.31-1.69-2.25-2.06c-0.94-0.37-1.87-0.56-3.19-0.56c-0.75,0-1.31,0-1.87,0.19
		c-0.75,0.19-1.31,0.37-1.87,0.56c-0.56,0.37-0.94,0.75-1.31,1.31c-0.37,0.56-0.56,1.31-0.56,1.87c0,0.56,0.19,1.12,0.37,1.5
		c0.19,0.56,0.56,0.94,0.75,1.12c0.37,0.19,0.75,0.56,1.31,0.75c0.56,0.19,0.94,0.37,1.5,0.37c0.37,0.19,0.94,0.19,1.69,0.37
		c0.56,0,1.12,0.19,1.5,0.19c0.56,0.19,0.94,0.37,1.31,0.56c0.37,0.19,0.75,0.37,0.94,0.75c0.19,0.37,0.37,0.75,0.37,1.12
		c0,0.56-0.19,0.94-0.37,1.31s-0.56,0.56-0.94,0.75c-0.56,0.19-0.94,0.37-1.31,0.56c-0.56,0-0.94,0-1.5,0
		c-0.94,0-1.87-0.19-2.62-0.56c-0.94-0.56-1.5-1.12-2.06-1.87l-1.5,0.75c0.56,1.12,1.31,2.06,2.44,2.62
		c1.12,0.56,2.44,0.75,3.75,0.75c0.75,0,1.5,0,2.06-0.19c0.75-0.19,1.31-0.37,1.87-0.75c0.56-0.19,1.12-0.75,1.5-1.31
		c0.37-0.56,0.56-1.31,0.56-2.06c0-0.56-0.19-1.12-0.37-1.69c-0.19-0.37-0.56-0.75-0.94-1.12c-0.19-0.19-0.75-0.37-1.31-0.75
		c-0.56-0.19-1.12-0.37-1.5-0.37c-0.37-0.19-0.94-0.19-1.69-0.37c-0.75,0-1.12-0.19-1.5-0.19c-0.56-0.19-0.94-0.37-1.31-0.56
		s-0.75-0.37-0.94-0.56c-0.19-0.37-0.19-0.56-0.19-0.94c0-0.94,0.37-1.5,1.12-1.87c0.75-0.56,1.69-0.75,2.62-0.75
		c0.94,0,1.69,0.19,2.44,0.56C331.41,82.31,331.97,82.69,332.35,83.25z"/>
	<path d="M339.09,90h4.87c0.75,0,1.69-0.19,2.44-0.56c0.56-0.37,1.12-0.94,1.5-1.5c0.37-0.56,0.75-1.12,0.94-1.87
		c0.19-0.75,0.19-1.31,0-2.06c-0.19-0.75-0.56-1.31-0.94-1.87c-0.37-0.56-0.94-1.12-1.5-1.5c-0.75-0.37-1.69-0.56-2.44-0.56h-6.75
		v14.62h1.87V90z M343.97,88.31h-4.87v-6.56h4.87c0.56,0,1.12,0.19,1.69,0.56c0.56,0.37,0.94,0.75,1.12,1.12
		c0.19,0.56,0.37,1.12,0.37,1.69c0,0.37-0.19,0.94-0.37,1.5c-0.19,0.37-0.56,0.94-1.12,1.12C345.09,88.13,344.53,88.31,343.97,88.31
		z"/>
	<path d="M358.21,79.88c-2.25,0-3.94,0.75-5.25,2.06c-1.5,1.5-2.06,3.37-2.06,5.44c0,0.94,0.19,1.87,0.37,2.81
		c0.37,0.94,0.75,1.69,1.31,2.44c0.75,0.75,1.5,1.31,2.44,1.69s2.06,0.56,3.19,0.56s2.25-0.19,3.19-0.56
		c0.94-0.37,1.87-0.94,2.44-1.69c0.56-0.75,0.94-1.5,1.31-2.44c0.19-0.94,0.37-1.87,0.37-2.81c0-2.06-0.56-3.75-1.87-5.25
		C362.34,80.63,360.65,79.88,358.21,79.88z M363.84,87.38c0,1.69-0.56,3-1.5,4.12c-0.94,1.12-2.25,1.69-4.12,1.69
		c-1.69,0-3.19-0.56-4.12-1.69c-0.94-1.12-1.5-2.44-1.5-4.12s0.56-3,1.5-4.12c0.94-1.12,2.44-1.69,4.12-1.69
		c1.31,0,2.25,0.19,3.19,0.94c0.75,0.56,1.5,1.31,1.87,2.06C363.65,85.5,363.84,86.44,363.84,87.38z"/>
	<path d="M378.64,94.69h2.25l-4.69-5.44c1.31-0.19,2.44-0.56,3.19-1.5c0.56-0.75,0.94-1.87,0.94-3c0-1.31-0.37-2.44-1.31-3.19
		c-0.94-0.94-2.06-1.5-3.56-1.5h-6.56v14.62h1.69v-5.25h3.56L378.64,94.69z M375.27,87.75h-4.69v-6h4.87c0.94,0,1.69,0.37,2.25,0.94
		c0.56,0.56,0.75,1.31,0.75,2.06c0,0.94-0.19,1.69-0.75,2.25C377.14,87.56,376.39,87.75,375.27,87.75z"/>
	<polygon points="387.08,81.75 387.08,94.69 388.76,94.69 388.76,81.75 393.64,81.75 393.64,80.07 382.02,80.07 382.02,81.75 	"/>
	<path d="M410.13,83.25l1.31-0.75c-0.56-1.12-1.31-1.69-2.25-2.06c-0.94-0.37-2.06-0.56-3.19-0.56c-0.75,0-1.31,0-2.06,0.19
		c-0.56,0.19-1.12,0.37-1.69,0.56c-0.56,0.37-0.94,0.75-1.31,1.31c-0.37,0.56-0.56,1.31-0.56,1.87c0,0.56,0.19,1.12,0.37,1.5
		c0.19,0.56,0.37,0.94,0.75,1.12c0.37,0.19,0.75,0.56,1.31,0.75s0.94,0.37,1.5,0.37c0.37,0.19,0.94,0.19,1.69,0.37
		c0.56,0,1.12,0.19,1.5,0.19c0.37,0.19,0.94,0.37,1.31,0.56s0.75,0.37,0.94,0.75c0.19,0.37,0.37,0.75,0.37,1.12
		c0,0.56-0.19,0.94-0.37,1.31c-0.37,0.37-0.56,0.56-1.12,0.75c-0.37,0.19-0.75,0.37-1.31,0.56c-0.37,0-0.75,0-1.31,0
		c-0.94,0-1.87-0.19-2.62-0.56c-0.94-0.56-1.69-1.12-2.06-1.87l-1.5,0.75c0.56,1.12,1.31,2.06,2.44,2.62
		c1.12,0.56,2.25,0.75,3.75,0.75c0.75,0,1.31,0,2.06-0.19s1.31-0.37,1.87-0.75c0.56-0.19,1.12-0.75,1.5-1.31
		c0.19-0.56,0.37-1.31,0.37-2.06c0-0.56,0-1.12-0.19-1.69c-0.37-0.37-0.56-0.75-0.94-1.12c-0.37-0.19-0.75-0.37-1.31-0.75
		c-0.56-0.19-1.12-0.37-1.5-0.37c-0.37-0.19-1.12-0.19-1.69-0.37c-0.75,0-1.12-0.19-1.69-0.19c-0.37-0.19-0.75-0.37-1.12-0.56
		c-0.37-0.19-0.75-0.37-0.94-0.56c-0.19-0.37-0.19-0.56-0.19-0.94c0-0.94,0.37-1.5,1.12-1.87c0.75-0.56,1.5-0.75,2.62-0.75
		c0.94,0,1.69,0.19,2.44,0.56C409.2,82.31,409.76,82.69,410.13,83.25z"/>
	<path d="M421.57,79.88c-2.25,0-4.12,0.75-5.44,2.06c-1.31,1.5-2.06,3.37-2.06,5.44c0,0.94,0.19,1.87,0.56,2.81
		c0.19,0.94,0.75,1.69,1.31,2.44c0.56,0.75,1.31,1.31,2.25,1.69c1.12,0.37,2.06,0.56,3.37,0.56c1.12,0,2.25-0.19,3.19-0.56
		c0.94-0.37,1.69-0.94,2.25-1.69c0.56-0.75,1.12-1.5,1.31-2.44c0.37-0.94,0.56-1.87,0.56-2.81c0-2.06-0.56-3.75-1.87-5.25
		C425.69,80.63,423.82,79.88,421.57,79.88z M427,87.38c0,1.69-0.37,3-1.31,4.12c-0.94,1.12-2.44,1.69-4.12,1.69
		c-1.87,0-3.19-0.56-4.12-1.69c-0.94-1.12-1.5-2.44-1.5-4.12s0.56-3,1.5-4.12c0.94-1.12,2.25-1.69,4.12-1.69
		c1.12,0,2.25,0.19,3,0.94c0.94,0.56,1.5,1.31,1.87,2.06C426.81,85.5,427,86.44,427,87.38z"/>
	<polygon points="433.94,80.07 432.06,80.07 432.06,94.69 441.81,94.69 441.81,93 433.94,93 	"/>
	<path d="M455.68,80.07h-1.87v8.81c0,1.31-0.37,2.44-1.12,3.19s-1.69,1.12-3,1.12c-1.12,0-2.06-0.37-3-1.12
		c-0.75-0.75-1.12-1.87-1.12-3.19v-8.81h-1.69v8.81c0,1.87,0.56,3.37,1.69,4.5c1.12,0.94,2.44,1.5,4.12,1.5
		c1.69,0,3.19-0.56,4.31-1.5c1.12-1.12,1.69-2.62,1.69-4.5L455.68,80.07L455.68,80.07z"/>
	<polygon points="462.99,81.75 462.99,94.69 464.68,94.69 464.68,81.75 469.74,81.75 469.74,80.07 458.12,80.07 458.12,81.75 	"/>
	<rect x="472.17" y="80.07" width="2.06" height="14.62"/>
	<path d="M484.73,79.88c-2.25,0-4.12,0.75-5.44,2.06c-1.31,1.5-2.06,3.37-2.06,5.44c0,0.94,0.19,1.87,0.56,2.81
		c0.37,0.94,0.75,1.69,1.31,2.44c0.56,0.75,1.31,1.31,2.44,1.69c0.94,0.37,1.87,0.56,3.19,0.56c1.12,0,2.25-0.19,3.19-0.56
		c0.94-0.37,1.69-0.94,2.25-1.69c0.75-0.75,1.12-1.5,1.5-2.44c0.19-0.94,0.37-1.87,0.37-2.81c0-2.06-0.56-3.75-1.87-5.25
		C488.85,80.63,486.98,79.88,484.73,79.88z M490.17,87.38c0,1.69-0.37,3-1.31,4.12c-0.94,1.12-2.44,1.69-4.12,1.69
		c-1.87,0-3.19-0.56-4.12-1.69c-0.94-1.12-1.5-2.44-1.5-4.12s0.56-3,1.5-4.12c0.94-1.12,2.44-1.69,4.12-1.69
		c1.12,0,2.25,0.19,3.19,0.94c0.75,0.56,1.31,1.31,1.87,2.06C490.17,85.5,490.35,86.44,490.17,87.38z"/>
	<polygon points="495.23,80.07 495.23,94.69 497.1,94.69 497.1,83.63 505.91,94.69 507.22,94.69 507.22,80.07 505.54,80.07 
		505.54,91.31 496.54,80.07 	"/>
	<path d="M520.53,83.25l1.31-0.75c-0.56-1.12-1.31-1.69-2.25-2.06c-0.94-0.37-2.06-0.56-3.19-0.56c-0.75,0-1.31,0-2.06,0.19
		c-0.56,0.19-1.12,0.37-1.69,0.56c-0.56,0.37-0.94,0.75-1.31,1.31c-0.37,0.56-0.56,1.31-0.56,1.87c0,0.56,0.19,1.12,0.37,1.5
		c0.19,0.56,0.37,0.94,0.75,1.12c0.37,0.19,0.75,0.56,1.31,0.75c0.56,0.19,0.94,0.37,1.5,0.37c0.37,0.19,0.94,0.19,1.69,0.37
		c0.56,0,1.12,0.19,1.5,0.19c0.37,0.19,0.94,0.37,1.31,0.56c0.37,0.19,0.75,0.37,0.94,0.75s0.37,0.75,0.37,1.12
		c0,0.56-0.19,0.94-0.37,1.31c-0.37,0.37-0.56,0.56-1.12,0.75c-0.37,0.19-0.75,0.37-1.31,0.56c-0.37,0-0.75,0-1.31,0
		c-0.94,0-1.87-0.19-2.62-0.56c-0.94-0.56-1.69-1.12-2.06-1.87l-1.5,0.75c0.56,1.12,1.31,2.06,2.44,2.62
		c1.12,0.56,2.25,0.75,3.75,0.75c0.75,0,1.31,0,2.06-0.19s1.31-0.37,1.87-0.75c0.56-0.19,1.12-0.75,1.5-1.31
		c0.19-0.56,0.37-1.31,0.37-2.06c0-0.56,0-1.12-0.19-1.69c-0.37-0.37-0.56-0.75-0.94-1.12c-0.37-0.19-0.75-0.37-1.31-0.75
		c-0.56-0.19-1.12-0.37-1.5-0.37c-0.37-0.19-1.12-0.19-1.69-0.37c-0.75,0-1.12-0.19-1.69-0.19c-0.37-0.19-0.75-0.37-1.12-0.56
		c-0.37-0.19-0.75-0.37-0.94-0.56c-0.19-0.37-0.19-0.56-0.19-0.94c0-0.94,0.37-1.5,1.12-1.87c0.75-0.56,1.5-0.75,2.62-0.75
		c0.94,0,1.69,0.19,2.44,0.56C519.59,82.31,520.16,82.69,520.53,83.25z"/>
</g>
</svg>
