<?xml version="1.0" encoding="utf-8"?>
<!-- Generator: Adobe Illustrator 25.2.0, SVG Export Plug-In . SVG Version: 6.00 Build 0)  -->
<svg version="1.1" id="Layer_1" xmlns="http://www.w3.org/2000/svg" xmlns:xlink="http://www.w3.org/1999/xlink" x="0px" y="0px"
	 viewBox="0 0 466.09 99.4" style="enable-background:new 0 0 466.09 99.4;" xml:space="preserve">
<style type="text/css">
	.st0{fill:#089848;}
	.st1{fill:#FFFFFF;}
</style>
<g>
	<path class="st0" d="M59.48,77.92V82c-8.28-6.84-21.72-18.24-22.2-18.72l8.28,3l10.68,9C56.24,75.28,57.56,76.36,59.48,77.92z"/>
	<path class="st0" d="M60.44,44.92c0,0-13.08,8.64-15.84,18.6l-10.68-3.96c0,0-3.24-8.76,4.68-17.88c6.6-7.56,11.16-6.84,15.96-6.48
		L60.44,44.92z"/>
	<polygon class="st0" points="85.16,59.44 80.48,59.44 74.12,54.4 74.24,54.4 62.24,44.2 58.88,37.96 	"/>
	<path class="st0" d="M90.8,62.08l2.76,2.28L90.8,62.08z M99.32,73.72V84.4h0.12V73.72H99.32L99.32,73.72z"/>
	<polygon class="st0" points="99.44,99.16 99.44,99.4 73.64,99.4 73.64,73.72 99.32,73.72 99.32,84.4 	"/>
	<polygon class="st0" points="99.44,73.72 99.44,99.16 99.32,84.4 99.32,73.72 	"/>
	<path class="st0" d="M99.32,59.44h-7.8l-0.96-2.52L86,57.88L62.6,37.84l2.16-3.24l-4.8,0.12L47.12,23.8
		c-0.6-0.48-1.2-0.84-2.04-1.08c-1.92-0.36-3.6-0.6-5.16-0.72c-6.36-0.36-12.24,2.28-16.2,6.96l-1.08,1.32
		c-6.36,7.68-4.32,17.04-3.24,20.52c0.24,0.84,0.72,1.56,1.44,2.16l13.92,11.76l0.6,5.28l2.76-3.36L59.48,84.4l6,5.16l-6-1.32V99.4
		H48.2C22.64,98.68,1.4,78.16,0.08,52.6C-1.6,23.08,22.4-1.16,51.68,0.04C76.76,1,97.4,20.92,99.2,45.88
		c0.12,0.48,0.12,0.96,0.12,1.32V59.44z"/>
	<polygon class="st0" points="93.56,64.36 90.8,62.08 87.8,59.44 86,57.88 90.56,56.92 91.52,59.44 	"/>
	<polygon class="st0" points="93.56,64.36 93.56,64.36 90.8,62.08 	"/>
</g>
<g>
	<path class="st1" d="M124.43,40.83h14.67c1.45,0,2.74,0.32,4.19,0.81c1.61,0.64,2.74,1.45,3.87,2.42c0.97,0.97,1.45,2.26,1.61,3.87
		c-0.16,1.61-0.64,2.74-1.61,3.71c-1.13,0.81-2.26,1.45-3.87,1.77c-1.45,0.48-2.74,0.64-4.19,0.64h-14.67
		C124.43,54.05,124.43,40.83,124.43,40.83z M124.43,20.68h14.67c2.1,0,3.71,0.48,4.84,1.13c1.13,0.64,1.93,1.61,2.42,2.42
		c0.64,0.97,0.81,1.93,0.81,2.74c0,1.45-0.48,2.74-1.77,3.87c-1.13,0.97-3.22,1.61-6.29,1.61h-14.67V20.68H124.43z M139.1,11.98
		c-8.06,0-16.12,0-24.18,0v50.93c8.06,0,16.12,0,24.18,0c3.55,0.16,6.77-0.32,9.67-1.29s5.16-2.58,6.93-4.67
		c1.61-2.26,2.42-5.32,2.58-9.03c0-1.13-0.32-2.42-0.81-3.87c-0.48-1.61-1.45-3.06-2.58-4.51c-1.29-1.29-2.9-2.26-4.84-2.9
		c2.42-1.13,4.03-2.58,5.16-4.35c0.97-1.61,1.45-3.55,1.45-5.48c0-3.55-0.81-6.29-2.26-8.38c-1.61-2.26-3.55-3.87-6.29-5
		C145.55,12.46,142.48,11.98,139.1,11.98z"/>
	<path class="st1" d="M173.91,26.81c0-1.61,0.64-2.9,1.61-4.03c0.97-0.97,2.26-1.77,3.87-2.42c1.45-0.48,3.06-0.81,4.84-0.81
		c3.38,0,6.12,0.64,8.22,2.1c2.26,1.29,3.38,3.38,3.38,6.12c0,1.93-0.81,3.38-1.93,4.35c-1.29,0.97-2.74,1.61-4.51,1.77
		c-1.61,0.32-3.22,0.48-4.51,0.48c-3.38-0.16-6.77,0.32-9.83,1.29c-3.22,0.97-5.8,2.42-7.74,4.67c-2.1,2.26-3.06,5.32-3.22,9.19
		c0,4.51,0,9.03,0,13.38h41.42v-8.86h-31.75V49.7c0-1.93,0.64-3.22,1.93-4.19s2.74-1.61,4.51-1.93c1.61-0.32,3.22-0.48,4.67-0.48
		c3.71,0,6.93-0.48,10.15-1.29c3.06-0.64,5.48-2.26,7.41-4.51s2.9-5.48,2.9-9.67c-0.16-4.03-1.13-7.25-3.22-9.67
		c-2.1-2.42-4.84-4.03-8.06-5.16c-3.06-0.97-6.45-1.45-9.99-1.45c-3.22,0-6.29,0.48-9.19,1.61c-3.06,0.97-5.48,2.74-7.41,5
		s-3.06,5.16-3.06,8.86C164.4,26.81,173.91,26.81,173.91,26.81z"/>
	<path class="st1" d="M221.94,40.83h14.83c1.29,0,2.74,0.32,4.19,0.81c1.45,0.64,2.74,1.45,3.71,2.42s1.61,2.26,1.61,3.87
		s-0.64,2.74-1.61,3.71c-0.97,0.81-2.26,1.45-3.71,1.77c-1.45,0.48-2.9,0.64-4.19,0.64h-14.83V40.83z M221.94,20.68h14.83
		c1.93,0,3.55,0.48,4.84,1.13c1.13,0.64,1.93,1.61,2.42,2.42c0.48,0.97,0.64,1.93,0.64,2.74c0.16,1.45-0.48,2.74-1.61,3.87
		c-1.29,0.97-3.38,1.61-6.29,1.61h-14.83V20.68z M236.77,11.98c-8.22,0-16.28,0-24.34,0v50.93c8.22,0,16.28,0,24.34,0
		c3.55,0.16,6.77-0.32,9.51-1.29c2.9-0.97,5.16-2.58,6.93-4.67c1.61-2.26,2.58-5.32,2.58-9.03c0-1.13-0.16-2.42-0.81-3.87
		c-0.48-1.61-1.29-3.06-2.58-4.51c-1.13-1.29-2.74-2.26-4.67-2.9c2.26-1.13,3.87-2.58,5-4.35c0.97-1.61,1.61-3.55,1.61-5.48
		c-0.16-3.55-0.81-6.29-2.42-8.38c-1.45-2.26-3.55-3.87-6.12-5C243.06,12.46,240.15,11.98,236.77,11.98z"/>
	<path class="st0" d="M308.81,56.14l-4.35-4.35c-4.03,4.03-8.86,5.96-14.67,5.96c-6.45,0-11.44-1.93-14.83-5.8
		c-3.55-3.87-5.32-8.7-5.32-14.34c-0.16-5.64,1.61-10.48,5.16-14.51c3.55-3.87,8.54-5.96,14.99-5.96c5.8,0,10.48,1.93,14.34,5.8
		l4.35-4.19c-5.16-5-11.44-7.58-18.7-7.58c-5.64,0-10.64,1.29-14.67,3.87c-4.19,2.58-7.25,5.8-9.03,9.83
		c-1.93,3.87-2.9,8.22-2.9,12.89c0.16,7.25,2.42,13.38,7.09,18.37c4.51,5.16,11.12,7.58,19.5,7.58
		C297.37,63.72,303.66,61.3,308.81,56.14z"/>
	<path class="st0" d="M336.05,11.98l-22.89,50.93h6.93l5-11.12h29.17l5,11.12h6.93L343.3,11.98H336.05z M351.85,45.99h-24.34
		l12.25-27.56L351.85,45.99z"/>
	<path class="st0" d="M375.22,11.98v50.93h22.24c2.58,0,5-0.16,7.09-0.64c2.1-0.48,4.03-1.13,5.96-2.26
		c1.77-0.97,3.22-2.42,4.19-4.35s1.61-4.19,1.61-6.77s-0.81-5-2.42-7.41c-1.61-2.26-3.87-3.87-6.77-4.67
		c2.42-0.97,4.19-2.42,5.48-4.19c1.45-1.93,2.1-4.03,2.1-6.45c0-4.51-1.61-8.06-5-10.64c-3.22-2.42-7.25-3.55-12.25-3.55
		C397.46,11.98,375.22,11.98,375.22,11.98z M381.5,17.62h15.96c3.38,0,5.96,0.81,7.9,2.26c2.1,1.45,3.06,3.71,3.06,6.45
		c0,2.58-0.97,4.51-2.9,5.64c-1.93,1.29-4.51,1.93-7.74,1.93H381.5V17.62z M381.5,39.7h16.28c3.22,0,5.96,0.64,8.38,2.26
		c2.42,1.45,3.71,3.71,3.71,6.77c0,1.61-0.32,3.06-1.13,4.19c-0.64,1.13-1.77,1.93-3.06,2.42c-1.29,0.64-2.58,1.13-3.87,1.29
		c-1.45,0.32-2.74,0.32-4.35,0.32H381.5V39.7z"/>
	<path class="st0" d="M459.83,23.1l4.84-3.06c-2.1-3.55-4.84-5.96-8.06-7.25s-6.93-1.93-11.28-1.93c-2.42,0-4.67,0.16-6.77,0.64
		c-2.26,0.64-4.35,1.45-6.29,2.42c-2.1,1.13-3.55,2.58-4.84,4.51c-1.13,1.93-1.77,4.19-1.77,6.77c0,1.93,0.48,3.71,1.29,5.16
		c0.64,1.61,1.61,2.9,2.74,3.71c1.13,0.97,2.58,1.77,4.35,2.58c1.93,0.64,3.71,1.29,5.32,1.61c1.45,0.32,3.38,0.64,5.8,0.97
		c2.26,0.48,4.03,0.81,5.64,1.13c1.45,0.48,3.06,0.97,4.51,1.61s2.74,1.61,3.38,2.74c0.81,1.13,1.13,2.42,1.13,3.87
		c0,1.93-0.48,3.38-1.29,4.67c-0.97,1.29-2.1,2.26-3.55,2.9c-1.45,0.81-3.06,1.29-4.67,1.45c-1.61,0.32-3.22,0.48-4.84,0.48
		c-3.38,0-6.61-0.81-9.51-2.26c-3.06-1.61-5.48-3.87-6.93-6.61l-5.32,3.06c1.93,4.03,4.67,6.93,8.54,8.86s8.22,2.9,13.05,2.9
		c2.58,0,5-0.32,7.41-0.81c2.26-0.48,4.51-1.45,6.61-2.58c2.1-0.97,3.71-2.58,5-4.67c1.13-2.1,1.77-4.35,1.77-7.09
		c0-2.26-0.32-4.19-1.13-5.96c-0.81-1.61-1.77-2.9-2.9-3.87s-2.74-1.93-4.67-2.74c-2.1-0.64-3.87-1.29-5.48-1.61
		c-1.45-0.32-3.55-0.64-6.12-0.97c-2.1-0.48-3.87-0.81-5.32-1.13s-2.9-0.81-4.35-1.45s-2.42-1.45-3.06-2.42
		c-0.81-0.97-1.13-2.1-1.13-3.38c0-2.9,1.45-5.16,4.03-6.61c2.74-1.45,5.8-2.26,9.51-2.26c2.9,0.16,5.8,0.64,8.38,1.77
		C456.45,19.4,458.54,21.01,459.83,23.1z"/>
	<path class="st1" d="M124.11,75.81l-5.64,12.57h1.77l1.13-2.74h7.09l1.29,2.74h1.61l-5.48-12.57H124.11L124.11,75.81z
		 M127.98,84.19h-5.96l2.9-6.77L127.98,84.19z"/>
	<path class="st1" d="M147.96,86.6l-0.97-0.97c-0.97,0.97-2.26,1.45-3.55,1.45c-1.61,0-2.9-0.48-3.71-1.45
		c-0.81-0.97-1.29-2.1-1.29-3.55c0-1.29,0.48-2.58,1.29-3.55s2.1-1.45,3.71-1.45c1.29,0,2.58,0.48,3.38,1.45l1.13-0.97
		c-1.29-1.29-2.74-1.93-4.51-1.93c-1.45,0-2.58,0.32-3.71,0.97c-0.97,0.64-1.77,1.45-2.1,2.42c-0.48,0.97-0.81,1.93-0.81,3.06
		c0,1.93,0.64,3.38,1.77,4.51c1.13,1.29,2.74,1.93,4.84,1.93C145.22,88.54,146.84,87.89,147.96,86.6z"/>
	<path class="st1" d="M155.86,75.64c-1.93,0-3.55,0.64-4.67,1.77c-1.13,1.29-1.77,2.9-1.77,4.67c0,0.81,0.16,1.61,0.48,2.42
		c0.16,0.81,0.64,1.45,1.13,2.1c0.48,0.64,1.13,1.13,1.93,1.45c0.97,0.32,1.77,0.48,2.9,0.48c0.97,0,1.93-0.16,2.74-0.48
		c0.81-0.32,1.45-0.81,1.93-1.45s0.97-1.29,1.13-2.1c0.32-0.81,0.48-1.61,0.48-2.42c0-1.77-0.48-3.22-1.61-4.51
		C159.41,76.29,157.79,75.64,155.86,75.64z M160.53,82.09c0,1.45-0.32,2.58-1.13,3.55s-2.1,1.45-3.55,1.45
		c-1.61,0-2.74-0.48-3.55-1.45s-1.29-2.1-1.29-3.55s0.48-2.58,1.29-3.55s1.93-1.45,3.55-1.45c0.97,0,1.93,0.16,2.58,0.81
		c0.81,0.48,1.29,1.13,1.61,1.77C160.37,80.48,160.53,81.29,160.53,82.09z"/>
	<polygon class="st1" points="175.85,78.06 175.85,88.38 177.3,88.38 177.3,75.81 175.52,75.81 171.17,82.25 166.82,75.81 
		164.89,75.81 164.89,88.38 166.5,88.38 166.5,78.06 171.01,84.35 171.33,84.35 	"/>
	<path class="st1" d="M182.45,84.35h4.19c0.81,0,1.45-0.16,2.1-0.48c0.64-0.32,0.97-0.81,1.29-1.29s0.64-0.97,0.81-1.61
		c0.16-0.64,0.16-1.13,0-1.77s-0.48-1.13-0.81-1.61c-0.32-0.48-0.64-0.97-1.29-1.29c-0.64-0.32-1.29-0.48-2.1-0.48h-5.8v12.57h1.61
		V84.35z M186.64,82.9h-4.19v-5.64h4.19c0.48,0,0.97,0.16,1.45,0.48s0.81,0.64,0.97,0.97c0.16,0.48,0.32,0.97,0.32,1.45
		c0,0.32-0.16,0.81-0.32,1.29c-0.16,0.32-0.48,0.81-0.97,0.97C187.61,82.74,187.13,82.9,186.64,82.9z"/>
	<polygon class="st1" points="194.86,75.81 193.41,75.81 193.41,88.38 201.63,88.38 201.63,86.93 194.86,86.93 	"/>
	<polygon class="st1" points="203.89,88.38 212.92,88.38 212.92,86.93 205.5,86.93 205.5,82.57 212.43,82.57 212.43,81.12 
		205.5,81.12 205.5,77.26 212.75,77.26 212.75,75.81 203.89,75.81 	"/>
	<polygon class="st1" points="218.72,77.26 218.72,88.38 220.17,88.38 220.17,77.26 224.52,77.26 224.52,75.81 214.37,75.81 
		214.37,77.26 	"/>
	<polygon class="st1" points="226.62,88.38 235.8,88.38 235.8,86.93 228.23,86.93 228.23,82.57 235.16,82.57 235.16,81.12 
		228.23,81.12 228.23,77.26 235.48,77.26 235.48,75.81 226.62,75.81 	"/>
	<polygon class="st1" points="245.47,77.26 245.47,88.38 247.08,88.38 247.08,77.26 251.27,77.26 251.27,75.81 241.28,75.81 
		241.28,77.26 	"/>
	<path class="st1" d="M261.91,88.38h1.93l-4.03-4.67c1.13-0.16,2.1-0.48,2.74-1.29c0.48-0.64,0.81-1.61,0.81-2.58
		c0-1.13-0.32-2.1-1.13-2.74c-0.64-0.81-1.77-1.29-3.06-1.29h-5.64v12.57h1.45v-4.51h3.06L261.91,88.38z M259.01,82.41h-4.03v-5.16
		h4.19c0.81,0,1.45,0.32,1.93,0.81c0.48,0.48,0.81,1.13,0.64,1.77c0,0.81-0.16,1.45-0.64,1.93S259.98,82.41,259.01,82.41z"/>
	<path class="st1" d="M270.62,75.81l-5.48,12.57h1.61l1.29-2.74h7.09l1.13,2.74h1.77l-5.64-12.57H270.62L270.62,75.81z
		 M274.48,84.19h-5.96l3.06-6.77L274.48,84.19z"/>
	<polygon class="st1" points="280.29,75.81 280.29,88.38 281.74,88.38 281.74,78.87 289.47,88.38 290.44,88.38 290.44,75.81 
		288.99,75.81 288.99,85.48 281.25,75.81 	"/>
	<path class="st1" d="M301.88,78.55l1.13-0.64c-0.48-0.97-1.13-1.45-1.93-1.77c-0.81-0.32-1.61-0.48-2.74-0.48
		c-0.64,0-1.13,0-1.61,0.16c-0.64,0.16-1.13,0.32-1.61,0.48c-0.48,0.32-0.81,0.64-1.13,1.13c-0.32,0.48-0.48,1.13-0.48,1.61
		s0.16,0.97,0.32,1.29c0.16,0.48,0.48,0.81,0.64,0.97c0.32,0.16,0.64,0.48,1.13,0.64s0.81,0.32,1.29,0.32
		c0.32,0.16,0.81,0.16,1.45,0.32c0.48,0,0.97,0.16,1.29,0.16c0.48,0.16,0.81,0.32,1.13,0.48s0.64,0.32,0.81,0.64
		c0.16,0.32,0.32,0.64,0.32,0.97c0,0.48-0.16,0.81-0.32,1.13s-0.48,0.48-0.81,0.64c-0.48,0.16-0.81,0.32-1.13,0.48
		c-0.48,0-0.81,0-1.29,0c-0.81,0-1.61-0.16-2.26-0.48c-0.81-0.48-1.29-0.97-1.77-1.61l-1.29,0.64c0.48,0.97,1.13,1.77,2.1,2.26
		s2.1,0.64,3.22,0.64c0.64,0,1.29,0,1.77-0.16c0.64-0.16,1.13-0.32,1.61-0.64c0.48-0.16,0.97-0.64,1.29-1.13
		c0.32-0.48,0.48-1.13,0.48-1.77c0-0.48-0.16-0.97-0.32-1.45c-0.16-0.32-0.48-0.64-0.81-0.97c-0.16-0.16-0.64-0.32-1.13-0.64
		c-0.48-0.16-0.97-0.32-1.29-0.32c-0.32-0.16-0.81-0.16-1.45-0.32c-0.64,0-0.97-0.16-1.29-0.16c-0.48-0.16-0.81-0.32-1.13-0.48
		s-0.64-0.32-0.81-0.48c-0.16-0.32-0.16-0.48-0.16-0.81c0-0.81,0.32-1.29,0.97-1.61c0.64-0.48,1.45-0.64,2.26-0.64
		s1.45,0.16,2.1,0.48C301.08,77.74,301.56,78.06,301.88,78.55z"/>
	<path class="st1" d="M307.69,84.35h4.19c0.64,0,1.45-0.16,2.1-0.48c0.48-0.32,0.97-0.81,1.29-1.29s0.64-0.97,0.81-1.61
		s0.16-1.13,0-1.77s-0.48-1.13-0.81-1.61c-0.32-0.48-0.81-0.97-1.29-1.29c-0.64-0.32-1.45-0.48-2.1-0.48h-5.8v12.57h1.61V84.35z
		 M311.88,82.9h-4.19v-5.64h4.19c0.48,0,0.97,0.16,1.45,0.48s0.81,0.64,0.97,0.97c0.16,0.48,0.32,0.97,0.32,1.45
		c0,0.32-0.16,0.81-0.32,1.29c-0.16,0.32-0.48,0.81-0.97,0.97C312.84,82.74,312.36,82.9,311.88,82.9z"/>
	<path class="st1" d="M324.12,75.64c-1.93,0-3.38,0.64-4.51,1.77c-1.29,1.29-1.77,2.9-1.77,4.67c0,0.81,0.16,1.61,0.32,2.42
		c0.32,0.81,0.64,1.45,1.13,2.1c0.64,0.64,1.29,1.13,2.1,1.45s1.77,0.48,2.74,0.48s1.93-0.16,2.74-0.48s1.61-0.81,2.1-1.45
		c0.48-0.64,0.81-1.29,1.13-2.1c0.16-0.81,0.32-1.61,0.32-2.42c0-1.77-0.48-3.22-1.61-4.51C327.67,76.29,326.22,75.64,324.12,75.64z
		 M328.96,82.09c0,1.45-0.48,2.58-1.29,3.55s-1.93,1.45-3.55,1.45c-1.45,0-2.74-0.48-3.55-1.45s-1.29-2.1-1.29-3.55
		s0.48-2.58,1.29-3.55s2.1-1.45,3.55-1.45c1.13,0,1.93,0.16,2.74,0.81c0.64,0.48,1.29,1.13,1.61,1.77
		C328.8,80.48,328.96,81.29,328.96,82.09z"/>
	<path class="st1" d="M341.69,88.38h1.93l-4.02-4.68c1.13-0.16,2.1-0.48,2.74-1.29c0.48-0.64,0.81-1.61,0.81-2.58
		c0-1.13-0.32-2.1-1.13-2.74c-0.81-0.81-1.77-1.29-3.06-1.29h-5.64v12.57h1.45v-4.51h3.06L341.69,88.38z M338.79,82.41h-4.03v-5.16
		h4.19c0.81,0,1.45,0.32,1.93,0.81c0.48,0.48,0.64,1.13,0.64,1.77c0,0.81-0.16,1.45-0.64,1.93
		C340.4,82.25,339.76,82.41,338.79,82.41z"/>
	<polygon class="st1" points="348.95,77.26 348.95,88.38 350.4,88.38 350.4,77.26 354.59,77.26 354.59,75.81 344.59,75.81 
		344.59,77.26 	"/>
	<path class="st1" d="M368.77,78.55l1.13-0.64c-0.48-0.97-1.13-1.45-1.93-1.77c-0.81-0.32-1.77-0.48-2.74-0.48
		c-0.64,0-1.13,0-1.77,0.16c-0.48,0.16-0.97,0.32-1.45,0.48c-0.48,0.32-0.81,0.64-1.13,1.13c-0.32,0.48-0.48,1.13-0.48,1.61
		s0.16,0.97,0.32,1.29c0.16,0.48,0.32,0.81,0.64,0.97s0.64,0.48,1.13,0.64s0.81,0.32,1.29,0.32c0.32,0.16,0.81,0.16,1.45,0.32
		c0.48,0,0.97,0.16,1.29,0.16c0.32,0.16,0.81,0.32,1.13,0.48s0.64,0.32,0.81,0.64c0.16,0.32,0.32,0.64,0.32,0.97
		c0,0.48-0.16,0.81-0.32,1.13c-0.32,0.32-0.48,0.48-0.97,0.64c-0.32,0.16-0.64,0.32-1.13,0.48c-0.32,0-0.64,0-1.13,0
		c-0.81,0-1.61-0.16-2.26-0.48c-0.81-0.48-1.45-0.97-1.77-1.61l-1.29,0.64c0.48,0.97,1.13,1.77,2.1,2.26
		c0.97,0.48,1.93,0.64,3.22,0.64c0.64,0,1.13,0,1.77-0.16c0.64-0.16,1.13-0.32,1.61-0.64c0.48-0.16,0.97-0.64,1.29-1.13
		c0.16-0.48,0.32-1.13,0.32-1.77c0-0.48,0-0.97-0.16-1.45c-0.32-0.32-0.48-0.64-0.81-0.97c-0.32-0.16-0.64-0.32-1.13-0.64
		c-0.48-0.16-0.97-0.32-1.29-0.32c-0.32-0.16-0.97-0.16-1.45-0.32c-0.64,0-0.97-0.16-1.45-0.16c-0.32-0.16-0.64-0.32-0.97-0.48
		s-0.64-0.32-0.81-0.48c-0.16-0.32-0.16-0.48-0.16-0.81c0-0.81,0.32-1.29,0.97-1.61c0.64-0.48,1.29-0.64,2.26-0.64
		c0.81,0,1.45,0.16,2.1,0.48S368.45,78.06,368.77,78.55z"/>
	<path class="st1" d="M378.6,75.64c-1.93,0-3.55,0.64-4.67,1.77c-1.13,1.29-1.77,2.9-1.77,4.67c0,0.81,0.16,1.61,0.48,2.42
		c0.16,0.81,0.64,1.45,1.13,2.1c0.48,0.64,1.13,1.13,1.93,1.45c0.97,0.32,1.77,0.48,2.9,0.48c0.97,0,1.93-0.16,2.74-0.48
		s1.45-0.81,1.93-1.45c0.48-0.64,0.97-1.29,1.13-2.1c0.32-0.81,0.48-1.61,0.48-2.42c0-1.77-0.48-3.22-1.61-4.51
		C382.15,76.29,380.53,75.64,378.6,75.64z M383.27,82.09c0,1.45-0.32,2.58-1.13,3.55s-2.1,1.45-3.55,1.45
		c-1.61,0-2.74-0.48-3.55-1.45s-1.29-2.1-1.29-3.55s0.48-2.58,1.29-3.55s1.93-1.45,3.55-1.45c0.97,0,1.93,0.16,2.58,0.81
		c0.81,0.48,1.29,1.13,1.61,1.77C383.11,80.48,383.27,81.29,383.27,82.09z"/>
	<polygon class="st1" points="389.24,75.81 387.63,75.81 387.63,88.38 396.01,88.38 396.01,86.93 389.24,86.93 	"/>
	<path class="st1" d="M407.93,75.81h-1.61v7.58c0,1.13-0.32,2.1-0.97,2.74c-0.64,0.64-1.45,0.97-2.58,0.97
		c-0.97,0-1.77-0.32-2.58-0.97c-0.64-0.64-0.97-1.61-0.97-2.74v-7.58h-1.45v7.58c0,1.61,0.48,2.9,1.45,3.87
		c0.97,0.81,2.1,1.29,3.55,1.29c1.45,0,2.74-0.48,3.71-1.29c0.97-0.97,1.45-2.26,1.45-3.87L407.93,75.81L407.93,75.81z"/>
	<polygon class="st1" points="414.22,77.26 414.22,88.38 415.67,88.38 415.67,77.26 420.02,77.26 420.02,75.81 410.03,75.81 
		410.03,77.26 	"/>
	<rect x="422.12" y="75.81" class="st1" width="1.77" height="12.57"/>
	<path class="st1" d="M432.92,75.64c-1.93,0-3.55,0.64-4.67,1.77c-1.13,1.29-1.77,2.9-1.77,4.67c0,0.81,0.16,1.61,0.48,2.42
		s0.64,1.45,1.13,2.1c0.48,0.64,1.13,1.13,2.1,1.45c0.81,0.32,1.61,0.48,2.74,0.48c0.97,0,1.93-0.16,2.74-0.48s1.45-0.81,1.93-1.45
		c0.64-0.64,0.97-1.29,1.29-2.1c0.16-0.81,0.32-1.61,0.32-2.42c0-1.77-0.48-3.22-1.61-4.51C436.46,76.29,434.85,75.64,432.92,75.64z
		 M437.59,82.09c0,1.45-0.32,2.58-1.13,3.55s-2.1,1.45-3.55,1.45c-1.61,0-2.74-0.48-3.55-1.45s-1.29-2.1-1.29-3.55
		s0.48-2.58,1.29-3.55s2.1-1.45,3.55-1.45c0.97,0,1.93,0.16,2.74,0.81c0.64,0.48,1.13,1.13,1.61,1.77
		C437.59,80.48,437.75,81.29,437.59,82.09z"/>
	<polygon class="st1" points="441.94,75.81 441.94,88.38 443.55,88.38 443.55,78.87 451.13,88.38 452.26,88.38 452.26,75.81 
		450.81,75.81 450.81,85.48 443.07,75.81 	"/>
	<path class="st1" d="M463.7,78.55l1.13-0.64c-0.48-0.97-1.13-1.45-1.93-1.77c-0.81-0.32-1.77-0.48-2.74-0.48
		c-0.64,0-1.13,0-1.77,0.16c-0.48,0.16-0.97,0.32-1.45,0.48c-0.48,0.32-0.81,0.64-1.13,1.13c-0.32,0.48-0.48,1.13-0.48,1.61
		s0.16,0.97,0.32,1.29c0.16,0.48,0.32,0.81,0.64,0.97s0.64,0.48,1.13,0.64c0.48,0.16,0.81,0.32,1.29,0.32
		c0.32,0.16,0.81,0.16,1.45,0.32c0.48,0,0.97,0.16,1.29,0.16c0.32,0.16,0.81,0.32,1.13,0.48s0.64,0.32,0.81,0.64
		c0.16,0.32,0.32,0.64,0.32,0.97c0,0.48-0.16,0.81-0.32,1.13c-0.32,0.32-0.48,0.48-0.97,0.64c-0.32,0.16-0.64,0.32-1.13,0.48
		c-0.32,0-0.64,0-1.13,0c-0.81,0-1.61-0.16-2.26-0.48c-0.81-0.48-1.45-0.97-1.77-1.61l-1.29,0.64c0.48,0.97,1.13,1.77,2.1,2.26
		s1.93,0.64,3.22,0.64c0.64,0,1.13,0,1.77-0.16s1.13-0.32,1.61-0.64c0.48-0.16,0.97-0.64,1.29-1.13c0.16-0.48,0.32-1.13,0.32-1.77
		c0-0.48,0-0.97-0.16-1.45c-0.32-0.32-0.48-0.64-0.81-0.97c-0.32-0.16-0.64-0.32-1.13-0.64c-0.48-0.16-0.97-0.32-1.29-0.32
		c-0.32-0.16-0.97-0.16-1.45-0.32c-0.64,0-0.97-0.16-1.45-0.16c-0.32-0.16-0.64-0.32-0.97-0.48s-0.64-0.32-0.81-0.48
		c-0.16-0.32-0.16-0.48-0.16-0.81c0-0.81,0.32-1.29,0.97-1.61c0.64-0.48,1.29-0.64,2.26-0.64c0.81,0,1.45,0.16,2.1,0.48
		C462.89,77.74,463.38,78.06,463.7,78.55z"/>
</g>
</svg>
