<?xml version="1.0" encoding="utf-8"?>
<!-- Generator: Adobe Illustrator 25.3.1, SVG Export Plug-In . SVG Version: 6.00 Build 0)  -->
<svg version="1.1" id="Layer_1" xmlns="http://www.w3.org/2000/svg" xmlns:xlink="http://www.w3.org/1999/xlink" x="0px" y="0px"
	 viewBox="0 0 375 172" style="enable-background:new 0 0 375 172;" xml:space="preserve">
<style type="text/css">
	.st0{clip-path:url(#a_3_);fill-rule:evenodd;clip-rule:evenodd;fill:#089848;}
	.st1{clip-path:url(#a_3_);fill-rule:evenodd;clip-rule:evenodd;fill:#64CC8E;}
	.st2{clip-path:url(#a_3_);fill-rule:evenodd;clip-rule:evenodd;fill:#FFAF7E;}
	.st3{clip-path:url(#a_3_);fill-rule:evenodd;clip-rule:evenodd;fill:#103251;}
	.st4{clip-path:url(#a_3_);fill:none;stroke:#FFFFFF;stroke-width:5;stroke-linecap:round;stroke-linejoin:bevel;}
</style>
<g>
	<defs>
		<path id="a_2_" d="M0,0h375v172H0V0z"/>
	</defs>
	<clipPath id="a_3_">
		<use xlink:href="#a_2_"  style="overflow:visible;"/>
	</clipPath>
	<path id="a_1_" class="st0" d="M0,0h375v172H0V0z"/>
	<path class="st1" d="M-71.53,215.64c54.5,128.6,292.5,204.1,354.6,99.9s-95-123.2-150.6-231c-55.5-107.8-98.7-175-179-150.5
		C-126.63-41.36-126.03,87.04-71.53,215.64z"/>
	<ellipse class="st2" cx="-21.13" cy="124.74" rx="96.3" ry="96.4"/>
	<path class="st3" d="M313.87,299.14c87.3-40.7,133.6-206.5,60.3-246.8s-82.6,68.5-155.5,109.3c-72.9,40.9-118.2,72.2-99.3,127
		C138.07,343.44,226.57,339.84,313.87,299.14z"/>
	<path class="st4" d="M216.27,109.14l15.3-15.5 M279.87,117.04l-18-15.1 M248.37,137.84l-9.9,21.3"/>
</g>
</svg>
