<?xml version="1.0" encoding="utf-8"?>
<!-- Generator: Adobe Illustrator 25.3.1, SVG Export Plug-In . SVG Version: 6.00 Build 0)  -->
<svg version="1.1" id="Layer_1" xmlns="http://www.w3.org/2000/svg" xmlns:xlink="http://www.w3.org/1999/xlink" x="0px" y="0px"
	 viewBox="0 0 274 568" style="enable-background:new 0 0 274 568;" xml:space="preserve">
<style type="text/css">
	.st0{fill:#089848;}
	.st1{fill-rule:evenodd;clip-rule:evenodd;fill:#64CC8E;}
	.st2{fill-rule:evenodd;clip-rule:evenodd;fill:#103251;}
	.st3{fill:none;stroke:#FFFFFF;stroke-width:5;stroke-linecap:round;stroke-linejoin:bevel;}
	.st4{fill:#FFAF7E;}
</style>
<path class="st0" d="M10,0h254c5.5,0,10,4.5,10,10v548c0,5.5-4.5,10-10,10H10c-5.5,0-10-4.5-10-10V10C0,4.5,4.5,0,10,0z"/>
<g>
	<path class="st1" d="M-34.7,543.1C3.2,632.5,168.8,685,212,612.5s-66.1-85.7-104.7-160.6C68.6,377,38.6,330.3-17.3,347.3
		C-73.1,364.4-72.6,453.7-34.7,543.1L-34.7,543.1z"/>
	<path class="st2" d="M233.1,601.2c60.7-28.3,92.8-143.5,41.9-171.5c-51-28-57.4,47.6-108.1,76c-50.7,28.4-82.1,50.2-69,88.2
		S172.4,629.4,233.1,601.2z"/>
	<path class="st3" d="M165.3,469.1l10.6-10.8 M209.5,474.6L197,464.1 M187.6,489l-6.9,14.8"/>
	<path class="st4" d="M0.3,546.9c37,0,67-30,67-67s-30-67-67-67s-67,30-67,67S-36.7,546.9,0.3,546.9z"/>
</g>
</svg>
