<?xml version="1.0" encoding="utf-8"?>
<!-- Generator: Adobe Illustrator 26.0.0, SVG Export Plug-In . SVG Version: 6.00 Build 0)  -->
<svg version="1.1" xmlns="http://www.w3.org/2000/svg" xmlns:xlink="http://www.w3.org/1999/xlink" x="0px" y="0px"
	 viewBox="0 0 1200 800" style="enable-background:new 0 0 1200 800;" xml:space="preserve">
<style type="text/css">
	.st0{fill:#C5CDD8;}
	.st1{fill:#69EF5E;}
	.st2{fill:#55719E;}
	.st3{fill:#CED2D8;}
	.st4{fill:#CED0DD;}
	.st5{fill:#1ECB15;}
	.st6{fill:#7F95B6;}
	.st7{fill:#21334F;}
	.st8{fill:url(#SVGID_1_);}
</style>
<g id="Background">
</g>
<g id="Graphic_Elements">
	<path class="st0" d="M353.9,191.5c0.6,0-62.6,125.2-62.6,125.2l-62.5-125L353.9,191.5z"/>
	<path class="st1" d="M604.1,191.5c0.6,0-62.6,125.2-62.6,125.2l-62.5-125L604.1,191.5z"/>
	<path class="st2" d="M291.4,316.7c-0.6,0,62.6-125.2,62.6-125.2l62.5,125L291.4,316.7z"/>
	<path class="st3" d="M353.9,191.5c-0.6,0,62.6-125.2,62.6-125.2l62.5,125L353.9,191.5z"/>
	<path class="st4" d="M228.8,442c-0.6,0,62.6-125.2,62.6-125.2l62.5,125L228.8,442z"/>
	<path class="st5" d="M166.3,316.7c-0.6,0,62.6-125.2,62.6-125.2l62.5,125L166.3,316.7z"/>
	<path class="st6" d="M416.5,316.7c-0.6,0,62.6-125.2,62.6-125.2l62.5,125L416.5,316.7z"/>
	<path class="st1" d="M353.9,441.9c-0.6,0,62.6-125.2,62.6-125.2l62.5,125L353.9,441.9z"/>
	<path class="st7" d="M416.5,316.8c0.6,0-62.6,125.2-62.6,125.2l-62.5-125L416.5,316.8z"/>
	<path class="st0" d="M541.6,316.8c0.6,0-62.6,125.2-62.6,125.2l-62.5-125L541.6,316.8z"/>
	<path class="st5" d="M478.9,441.7c0.6,0-62.6,125.2-62.6,125.2l-62.5-125L478.9,441.7z"/>
	<path class="st7" d="M416.5,66.3c0.6,0-62.6,125.2-62.6,125.2l-62.5-125L416.5,66.3z"/>
	<path class="st5" d="M541.6,66.3c0.6,0-62.6,125.2-62.6,125.2l-62.5-125L541.6,66.3z"/>
	<path class="st7" d="M479,441.9c-0.6,0,62.6-125.2,62.6-125.2l62.5,125L479,441.9z"/>
	<linearGradient id="SVGID_1_" gradientUnits="userSpaceOnUse" x1="479.0298" y1="128.9121" x2="604.1229" y2="128.9121">
		<stop  offset="0.169" style="stop-color:#F5F5F5"/>
		<stop  offset="0.9919" style="stop-color:#C7C7C7"/>
	</linearGradient>
	<path class="st8" d="M479,191.5c-0.6,0,62.6-125.2,62.6-125.2l62.5,125L479,191.5z"/>
	<path class="st1" d="M353.9,692.3c-0.6,0,62.6-125.2,62.6-125.2l62.5,125L353.9,692.3z"/>
	<path class="st5" d="M479,191.5c0.6,0-62.6,125.2-62.6,125.2l-62.5-125L479,191.5z"/>
</g>
</svg>
