<svg width="60" height="24" viewBox="0 0 60 24" fill="none" xmlns="http://www.w3.org/2000/svg">
<path d="M37.0288 23.143H58.7427L56.9915 22.6632H35.2776L37.0288 23.143Z" fill="#606060"/>
<path d="M3.75141 23.4798H25.4653L23.7141 23H2.00023L3.75141 23.4798Z" fill="#606060"/>
<path d="M56.2231 19.6906C55.9433 19.5753 38.9735 18.8405 38.6245 19.0464C38.2756 19.2523 3.01499 17.6957 3.25663 17.6957C3.49827 17.6957 4.3342 13.4659 4.3342 13.4659C4.3342 13.4659 7.70876 10.9515 8.0241 10.6879C8.33944 10.4244 49.0076 10.4735 49.2501 10.7352C49.4927 10.9968 56.2231 14.0194 56.2231 14.0194V19.6906Z" fill="#FFA633"/>
<path opacity="0.4" d="M56.2231 19.6906C55.9433 19.5753 38.9735 18.8405 38.6245 19.0464C38.2756 19.2523 3.01499 17.6957 3.25663 17.6957C3.49827 17.6957 4.3342 13.4659 4.3342 13.4659C4.3342 13.4659 7.70876 10.9515 8.0241 10.6879C8.33944 10.4244 49.0076 10.4735 49.2501 10.7352C49.4927 10.9968 56.2231 14.0194 56.2231 14.0194V19.6906Z" fill="black"/>
<path d="M6.43557 2.27659L2.14858 6.26171L4.07142 6.76799L5.74517 5.57501L8.02441 3.37795L7.23326 2.10657L6.43557 2.27659Z" fill="#455A64"/>
<path d="M44.8887 7.20716C44.8887 7.20716 37.452 2.35399 34.8051 1.56622L34.0326 1.9346L35.2782 2.99724L44.4213 7.78807L44.8887 7.20716Z" fill="#455A64"/>
<path d="M1.01812 11.1933L1.71972 9.81233L1.36892 9.25976V7.24783L2.14888 6.26171L3.59031 6.06429L7.2149 2.67142L6.43494 2.27659L6.24088 1.8043L6.47412 1.36981C11.1119 0.501751 24.4394 0.304336 27.9082 0.265609C31.3769 0.226882 34.8056 1.56722 34.8056 1.56722L34.494 1.84303C34.494 1.84303 35.9363 2.55334 37.9628 3.54325C39.9892 4.53315 44.1204 7.29223 44.1204 7.29223L45.6402 7.13448C53.4771 7.72578 56.6688 9.34382 57.682 9.81705C58.6952 10.2903 59.9034 13.1703 59.9034 13.1703C60.2159 13.8541 59.6701 17.4709 59.6701 17.4709C59.6701 17.4709 56.4355 19.0096 56.3189 19.0096L54.7329 18.9812C54.7816 18.6704 54.8062 18.3561 54.8066 18.0414C54.8078 17.2299 54.6448 16.4267 54.3276 15.6814C54.0104 14.9361 53.5458 14.2645 52.9624 13.7081C52.379 13.1516 51.6892 12.722 50.9355 12.4458C50.1818 12.1696 49.3802 12.0526 48.5802 12.1021C47.7801 12.1516 46.9986 12.3666 46.2837 12.7336C45.5689 13.1007 44.9358 13.6122 44.4237 14.2365C43.9116 14.8607 43.5313 15.5846 43.3061 16.3635C43.081 17.1423 43.0158 17.9596 43.1146 18.7649L22.6481 18.4919L16.4905 17.8118C16.4428 16.3836 15.8881 15.0206 14.9281 13.9729C13.9681 12.9252 12.6672 12.2631 11.264 12.108C9.86077 11.9529 8.44938 12.3152 7.28871 13.1285C6.12803 13.9418 5.29591 15.1515 4.94499 16.5357L1.56391 16.1626L0.589882 14.9394L1.01812 11.1933Z" fill="#FFA633"/>
<path d="M60 17.2536C60 17.2536 59.7891 18.6846 59.4402 19.0048C59.0913 19.325 55.8903 20.1675 55.2829 20.1997C54.9904 20.2223 54.6966 20.2223 54.4041 20.1997L54.8024 17.5747L60 17.2536Z" fill="#263238"/>
<path d="M43.4448 17.2537C43.4448 17.2858 43.0604 20.2149 43.0604 20.2149L16.6574 19.3581L16.1723 16.379L43.4448 17.2537Z" fill="#263238"/>
<path opacity="0.4" d="M42.0439 16.2637C42.0439 16.2486 40.7378 15.5657 38.8719 15.3381C37.0059 15.1104 21.3526 14.2698 20.3198 14.4058C19.287 14.5418 17.7597 15.202 17.7597 15.202L42.0439 16.2637Z" fill="black"/>
<path d="M27.1064 19.6906C27.1078 19.6797 27.1078 19.6685 27.1064 19.6576C27.1064 19.633 27.1064 19.5999 27.1064 19.5631C27.1064 19.4734 27.1064 19.3468 27.1064 19.1853C27.1064 18.8537 27.1064 18.3796 27.1064 17.7939C27.1064 16.617 27.1064 14.9952 27.1064 13.2034C27.1097 12.7663 27.091 12.3293 27.0504 11.8942C27.0131 11.4729 26.9655 11.0677 26.9151 10.6823C26.8153 9.91155 26.707 9.22107 26.6128 8.64111L26.3824 7.2696C26.3563 7.10997 26.3348 6.98623 26.3208 6.8965C26.3124 6.85399 26.3096 6.82093 26.3068 6.80204C26.3061 6.79085 26.3042 6.77977 26.3012 6.76898C26.2998 6.77995 26.2998 6.79107 26.3012 6.80204C26.3012 6.82471 26.3012 6.85777 26.3096 6.8965C26.3199 6.98245 26.3385 7.10902 26.3628 7.27432C26.4141 7.60209 26.4878 8.07059 26.5783 8.64867C26.6688 9.22674 26.7724 9.92005 26.8703 10.6899C26.9188 11.0753 26.9636 11.4805 27.0019 11.9008C27.0417 12.3344 27.0601 12.7698 27.0569 13.2052C27.0634 14.9999 27.07 16.6189 27.0746 17.7958C27.0746 18.3815 27.083 18.8556 27.0858 19.1872C27.0858 19.3496 27.0858 19.4762 27.0914 19.565C27.0914 19.6056 27.0914 19.6387 27.0914 19.6595C27.0952 19.6704 27.1002 19.6808 27.1064 19.6906Z" fill="#263238"/>
<path opacity="0.4" d="M53.4988 10.0182C53.606 10.0513 42.2929 9.79245 40.2982 9.51663C38.3035 9.24082 5.96492 7.91087 5.96492 7.91087C5.96492 7.91087 49.724 8.86677 53.4988 10.0182Z" fill="black"/>
<path opacity="0.4" d="M4.33398 10.1798C4.33398 10.1798 3.77421 11.5097 3.14166 11.6391C2.50911 11.7685 1.01822 11.1933 1.01822 11.1933L1.71981 9.81233L4.33398 10.1798Z" fill="black"/>
<path d="M6.09656 8.11592C6.0835 8.25761 4.61407 10.0995 4.33418 10.1798C4.05429 10.2601 2.30125 10.1533 2.14918 10.0853C1.99919 10.006 1.85569 9.91474 1.72001 9.81236L1.36922 9.25979C1.36922 9.25979 1.30298 7.876 1.36922 7.89206C1.43546 7.90812 6.12362 7.83633 6.09656 8.11592Z" fill="white"/>
<path d="M57.7954 10.6879C57.7848 10.6809 57.7736 10.6749 57.7618 10.67L57.662 10.6228C57.5687 10.5812 57.4409 10.5217 57.2702 10.448C56.9287 10.3016 56.4305 10.0947 55.8063 9.87089C55.4928 9.76037 55.1532 9.6423 54.7735 9.53179C54.3745 9.41071 53.9697 9.31014 53.5607 9.23047C52.6958 9.07745 51.7395 8.95371 50.7347 8.82998C48.7242 8.58817 46.9011 8.40303 45.581 8.27363L44.0164 8.12722L43.591 8.09133L43.4809 8.08282H43.4426L43.4799 8.08944L43.59 8.10172L44.0155 8.14706L45.5773 8.30952C46.8965 8.44743 48.7195 8.63729 50.7291 8.87626C51.733 9 52.6883 9.12185 53.5523 9.27298C53.9594 9.35039 54.3623 9.44875 54.7595 9.56768C55.1327 9.67631 55.4789 9.79249 55.7923 9.90111C56.4184 10.1203 56.9166 10.3214 57.2608 10.4679L57.6545 10.6331L57.7572 10.6766L57.7954 10.6879Z" fill="#263238"/>
<path d="M57.8746 10.7229C57.91 10.7399 59.0165 12.2342 58.8682 12.3948C58.7198 12.5554 56.9798 12.596 56.3715 12.2569C55.7632 11.9178 53.5726 10.107 53.5652 10.0315C53.5577 9.95591 56.9817 10.295 57.8746 10.7229Z" fill="white"/>
<path opacity="0.4" d="M60 14.4577C59.9879 14.4577 57.7431 14.1186 57.2011 14.6004C56.659 15.0821 56.4071 17.0373 56.4641 17.2546C56.521 17.4718 59.7043 17.2357 59.7015 17.2546C59.6987 17.2735 59.7948 16.5934 59.8694 15.9076C59.9459 15.1907 60 14.4577 60 14.4577Z" fill="black"/>
<path d="M59.0331 14.5635C59.0704 14.6447 58.8045 16.3836 58.5218 16.633C58.2392 16.8824 56.5486 16.9362 56.5486 16.9362C56.5486 16.9362 56.8416 14.981 57.2017 14.7061C57.5618 14.4312 58.9295 14.332 59.0331 14.5635Z" fill="#263238"/>
<path d="M5.29453 19.0048C5.0361 18.9756 5.34025 15.6837 5.48113 15.6904C5.58842 15.696 0.816281 14.7042 0.616626 14.7146C0.567207 14.7172 0.51912 14.7317 0.476418 14.7571C0.433717 14.7824 0.397651 14.8177 0.371255 14.8601C0.371255 14.8601 -0.13348 16.514 0.0344543 16.9325C0.202389 17.3509 3.67304 18.916 3.9464 19.0048C4.21976 19.0936 5.29453 19.0048 5.29453 19.0048Z" fill="#263238"/>
<path d="M13.542 12.9049C13.5414 12.8946 13.5395 12.8844 13.5364 12.8746C13.5364 12.852 13.5252 12.8236 13.5177 12.7868L13.4394 12.4505C13.3694 12.1558 13.2705 11.7336 13.1483 11.2141C13.0261 10.6946 12.8814 10.0702 12.7331 9.37691C12.6613 9.0312 12.5801 8.6666 12.5288 8.28594C12.5227 8.23961 12.5202 8.19287 12.5213 8.14614C12.5234 8.12372 12.5298 8.10192 12.54 8.08191L12.567 8.01579C12.6081 7.927 12.6491 7.83822 12.6902 7.74754C12.777 7.56901 12.8637 7.38671 12.9524 7.20347C13.6698 5.73467 14.3322 4.41322 14.808 3.45355C15.045 2.97654 15.2363 2.58927 15.3678 2.32007C15.4331 2.18783 15.4835 2.08393 15.519 2.01025L15.5572 1.92902C15.562 1.9199 15.566 1.91042 15.5693 1.90068C15.5693 1.90068 15.5628 1.90918 15.5535 1.92618L15.5106 2.00553L15.351 2.31062C15.2139 2.58077 15.017 2.9652 14.7744 3.4441C14.2912 4.39905 13.6232 5.71861 12.9085 7.18741C12.8208 7.37128 12.7334 7.55296 12.6463 7.73242L12.5232 8.00257L12.4952 8.07247C12.483 8.09557 12.4757 8.12098 12.4737 8.14709C12.4722 8.1973 12.475 8.24755 12.4821 8.29727C12.5344 8.68266 12.6156 9.04537 12.6893 9.39297C12.8404 10.0853 12.9887 10.7069 13.1147 11.2283C13.2406 11.7497 13.3461 12.1728 13.4207 12.4609C13.458 12.6035 13.487 12.7159 13.5084 12.7953C13.5177 12.8312 13.5261 12.8595 13.5317 12.8812C13.5342 12.8895 13.5377 12.8974 13.542 12.9049Z" fill="#263238"/>
<path d="M43.5464 8.11586C43.4736 8.08752 36.6154 2.93587 33.4078 2.29262C30.2213 1.65985 26.9752 1.38741 23.7292 1.48029C20.4937 1.56436 10.732 2.18022 10.732 2.18022L9.07318 3.97489L13.1101 6.46665L43.5464 8.11586Z" fill="#455A64"/>
<path opacity="0.25" d="M33.408 2.29265C35.0566 2.62325 37.6707 4.14589 39.8306 5.55046C37.8909 5.20002 30.8246 4.01648 26.9379 3.72934C22.4596 3.39779 9.29822 3.72934 9.29822 3.72934L10.7322 2.17836C10.7322 2.17836 20.4938 1.5625 23.7294 1.47844C26.9754 1.38617 30.2215 1.65925 33.408 2.29265Z" fill="white"/>
<path d="M26.3095 1.56622L27.9692 7.27612L24.9557 7.10704L24.5956 1.56622H26.3095Z" fill="#263238"/>
<path d="M15.191 6.58285C15.1285 6.51862 14.8551 3.96357 14.8551 3.96357C14.8551 3.96357 15.9905 1.89497 15.9308 1.89497H15.0688C15.0688 1.89497 12.9024 6.45061 12.9453 6.45061C12.9882 6.45061 15.191 6.58285 15.191 6.58285Z" fill="#263238"/>
<path d="M43.5465 8.21038C43.5674 8.21047 43.5878 8.2034 43.6043 8.19031C43.6208 8.17723 43.6325 8.15889 43.6375 8.13826C43.6424 8.11763 43.6404 8.09591 43.6317 8.07661C43.6229 8.0573 43.608 8.04154 43.5894 8.03186C43.5698 8.01958 43.4737 7.94968 43.3524 7.86278C38.7435 4.53602 35.3111 2.57322 33.4256 2.19539C30.2309 1.56249 26.9768 1.28943 23.7227 1.38118C20.5226 1.4643 10.8198 2.07543 10.7227 2.0811C10.6988 2.08268 10.6765 2.0935 10.6602 2.11133L9.00141 3.906C8.99202 3.91618 8.98497 3.92834 8.98076 3.9416C8.97656 3.95486 8.9753 3.9689 8.97709 3.98271C8.97887 3.99652 8.98365 4.00977 8.99108 4.02149C8.99851 4.03321 9.00842 4.04312 9.02008 4.05052L13.058 6.54228C13.0712 6.55064 13.0863 6.55551 13.1018 6.55645L43.5371 8.20849L43.5465 8.21038ZM24.9169 1.5597C27.7609 1.55448 30.5985 1.83099 33.3892 2.38525C35.2197 2.75269 38.7127 4.74666 43.2265 8.00352L13.1391 6.37131L9.22066 3.95228L10.775 2.27285C11.4365 2.23129 20.6346 1.65605 23.7311 1.57576C24.1286 1.56505 24.5238 1.5597 24.9169 1.5597Z" fill="#E0E0E0"/>
<path d="M41.748 20.1714C41.7488 20.1597 41.7488 20.1481 41.748 20.1364C41.748 20.1109 41.7546 20.0769 41.7583 20.0335C41.7667 19.939 41.7779 19.8087 41.7928 19.6396C41.8217 19.2939 41.8619 18.798 41.9113 18.1878C42.0046 16.9599 42.139 15.2672 42.2761 13.396C42.3591 12.2455 42.4375 11.1631 42.4916 10.2138C42.4995 10.0962 42.4995 9.97813 42.4916 9.86051C42.4771 9.74827 42.455 9.63718 42.4254 9.52802C42.3708 9.3252 42.306 9.12532 42.2313 8.92917C42.0904 8.55607 41.9514 8.23019 41.818 7.95343C41.7247 7.57561 41.651 7.27902 41.5997 7.07121C41.5736 6.97203 41.554 6.89363 41.54 6.8379C41.5335 6.81334 41.5279 6.79445 41.5232 6.7784C41.5219 6.77151 41.5197 6.76483 41.5167 6.75856C41.5154 6.76543 41.5154 6.77247 41.5167 6.77934C41.5167 6.7954 41.5241 6.81523 41.5297 6.83979C41.5419 6.89647 41.5596 6.97486 41.582 7.07499C41.6305 7.28279 41.7005 7.58222 41.7882 7.96005C41.9141 8.2368 42.0541 8.56362 42.1921 8.93673C42.2602 9.12564 42.3274 9.32211 42.3787 9.53275C42.4073 9.64003 42.4282 9.74925 42.4412 9.85957C42.4496 9.97465 42.4496 10.0902 42.4412 10.2053C42.3834 11.1498 42.3032 12.2361 42.2201 13.3866C42.083 15.2568 41.9598 16.9504 41.8693 18.1793C41.8264 18.7904 41.791 19.2863 41.7667 19.632C41.7555 19.8021 41.7471 19.9343 41.7415 20.0278C41.7415 20.0703 41.7415 20.1043 41.7359 20.1308C41.7382 20.1448 41.7423 20.1584 41.748 20.1714Z" fill="#263238"/>
<path opacity="0.4" d="M42.0059 18.951L17.2579 18.2105L17.6955 18.7574L41.2343 19.5197L42.0059 18.951Z" fill="black"/>
<path d="M43.6507 17.9984C43.5333 15.091 45.7662 12.6377 48.638 12.5189C51.5097 12.4001 53.9329 14.6607 54.0502 17.5682C54.1676 20.4756 51.9347 22.9289 49.0629 23.0477C46.1912 23.1665 43.768 20.9058 43.6507 17.9984Z" fill="#263238"/>
<path d="M54.0483 17.6956C54.0483 17.7004 54.0483 17.7041 54.0483 17.7089C54.0679 19.1062 53.5383 20.4542 52.5762 21.4563C51.614 22.4584 50.2981 23.0325 48.9179 23.0523C47.5377 23.072 46.2062 22.5359 45.2165 21.5618C44.2267 20.5877 43.6597 19.2555 43.6401 17.8581C43.6401 17.8581 43.6401 17.8496 43.6401 17.8449L54.0483 17.6956Z" fill="#263238"/>
<path d="M52.4986 17.7316C52.5091 18.4631 52.305 19.1813 51.9123 19.7954C51.5196 20.4095 50.9558 20.8919 50.2922 21.1816C49.6287 21.4713 48.8952 21.5553 48.1845 21.4229C47.4739 21.2906 46.8179 20.9478 46.2996 20.438C45.7814 19.9282 45.424 19.2743 45.2729 18.5589C45.1217 17.8435 45.1834 17.0988 45.4503 16.4189C45.7172 15.7391 46.1772 15.1546 46.7722 14.7394C47.3671 14.3243 48.0704 14.097 48.7929 14.0865C49.2726 14.0794 49.7491 14.168 50.195 14.3474C50.6409 14.5267 51.0475 14.7933 51.3917 15.1318C51.7358 15.4703 52.0107 15.8741 52.2006 16.3202C52.3906 16.7663 52.4918 17.2459 52.4986 17.7316Z" fill="#FAFAFA"/>
<path d="M48.7933 14.0865C49.7621 14.0724 50.6968 14.4484 51.3918 15.132C52.0867 15.8156 52.485 16.7507 52.499 17.7316L45.1929 17.8383C45.1792 16.8575 45.5508 15.9113 46.2259 15.2078C46.9011 14.5042 47.8245 14.1009 48.7933 14.0865Z" fill="#E0E0E0"/>
<path d="M51.0715 17.7524C51.078 18.1981 50.9537 18.6357 50.7144 19.0099C50.4751 19.3841 50.1316 19.6781 49.7273 19.8546C49.3231 20.0312 48.8761 20.0824 48.4431 20.0017C48.0101 19.9211 47.6104 19.7123 47.2946 19.4017C46.9788 19.0911 46.761 18.6926 46.6689 18.2567C46.5768 17.8208 46.6144 17.3671 46.777 16.9528C46.9397 16.5386 47.2199 16.1824 47.5825 15.9295C47.945 15.6765 48.3735 15.5381 48.8138 15.5317C49.404 15.5231 49.9734 15.7522 50.3968 16.1687C50.8203 16.5851 51.0629 17.1548 51.0715 17.7524Z" fill="#263238"/>
<path d="M5.52227 18.0004C5.40492 15.0929 7.63781 12.6397 10.5096 12.5209C13.3813 12.402 15.8044 14.6627 15.9218 17.5701C16.0391 20.4776 13.8063 22.9308 10.9345 23.0496C8.06277 23.1684 5.63962 20.9078 5.52227 18.0004Z" fill="#263238"/>
<path d="M15.9209 17.6956C15.9209 17.7004 15.9209 17.7041 15.9209 17.7089C15.9231 19.0948 15.3858 20.4257 14.4255 21.4134C13.4652 22.4011 12.1593 22.9659 10.7905 22.9855C9.42176 23.0052 8.10048 22.478 7.11294 21.5183C6.12541 20.5585 5.55114 19.2435 5.51455 17.8581C5.51455 17.8581 5.51455 17.8496 5.51455 17.8449L15.9209 17.6956Z" fill="#263238"/>
<path d="M14.3712 17.7316C14.3816 18.4631 14.1776 19.1813 13.7849 19.7954C13.3921 20.4095 12.8283 20.8919 12.1648 21.1816C11.5013 21.4713 10.7678 21.5553 10.0571 21.4229C9.34643 21.2906 8.69047 20.9478 8.1722 20.438C7.65392 19.9282 7.2966 19.2743 7.14542 18.5589C6.99424 17.8435 7.05599 17.0988 7.32287 16.4189C7.58974 15.7391 8.04975 15.1546 8.64473 14.7394C9.2397 14.3243 9.94291 14.097 10.6654 14.0865C11.1452 14.0794 11.6216 14.168 12.0675 14.3474C12.5135 14.5267 12.9201 14.7933 13.2642 15.1318C13.6084 15.4703 13.8832 15.8741 14.0732 16.3202C14.2631 16.7663 14.3644 17.2459 14.3712 17.7316Z" fill="#FAFAFA"/>
<path d="M10.6658 14.0865C11.6347 14.0724 12.5694 14.4484 13.2643 15.132C13.9593 15.8156 14.3576 16.7507 14.3716 17.7316L7.0655 17.8383C7.05179 16.8575 7.42335 15.9113 8.09848 15.2078C8.77362 14.5042 9.69706 14.1009 10.6658 14.0865Z" fill="#E0E0E0"/>
<path d="M12.9461 17.7524C12.9525 18.1981 12.8282 18.6357 12.5889 19.0099C12.3496 19.3841 12.0061 19.6781 11.6019 19.8546C11.1976 20.0312 10.7506 20.0824 10.3176 20.0017C9.88458 19.9211 9.48489 19.7123 9.16909 19.4017C8.85328 19.0911 8.63556 18.6926 8.54343 18.2567C8.45131 17.8208 8.48893 17.3671 8.65155 16.9528C8.81416 16.5386 9.09446 16.1824 9.457 15.9295C9.81953 15.6765 10.248 15.5381 10.6883 15.5317C11.2785 15.5231 11.848 15.7522 12.2714 16.1687C12.6948 16.5851 12.9375 17.1548 12.9461 17.7524Z" fill="#263238"/>
<path d="M42.8012 14.4341C42.8084 14.4228 42.8143 14.4108 42.8189 14.3982L42.8647 14.2905C42.929 14.1532 43.0013 14.0198 43.0811 13.891C43.3731 13.4228 43.7409 13.0077 44.1689 12.6631C45.58 11.5007 47.3756 10.9265 49.1902 11.0573C50.1801 11.1318 51.1467 11.398 52.0376 11.8413C52.7645 12.2036 53.4332 12.6749 54.0211 13.2392C54.2458 13.4567 54.4588 13.6863 54.6592 13.9269C54.7451 14.0355 54.8263 14.1347 54.8972 14.2301C54.9681 14.3255 55.0324 14.4124 55.0838 14.4936L55.2274 14.709L55.3282 14.8705L55.3898 14.9697C55.397 14.9811 55.4047 14.9921 55.4131 15.0027C55.4078 14.9903 55.4015 14.9783 55.3944 14.9669L55.3366 14.8648C55.3105 14.8204 55.2797 14.7647 55.2433 14.7014L55.1024 14.4823C55.0492 14.4011 54.9849 14.3132 54.9158 14.2159C54.8468 14.1186 54.7647 14.0185 54.6798 13.9089C54.4809 13.6655 54.2687 13.4334 54.0444 13.2137C53.4572 12.6417 52.7871 12.1639 52.0572 11.7969C51.1613 11.3493 50.1884 11.0815 49.192 11.0082C48.1945 10.9388 47.1936 11.0806 46.2532 11.4247C45.4863 11.7041 44.7729 12.1157 44.1447 12.6413C43.7161 12.9896 43.3497 13.4097 43.0615 13.8834C42.9546 14.0565 42.8673 14.2413 42.8012 14.4341Z" fill="#263238"/>
<path d="M4.32972 13.941C4.32972 13.941 4.33624 13.9287 4.3465 13.9051L4.39222 13.7974C4.45456 13.6611 4.52433 13.5283 4.6012 13.3998C4.8936 12.9316 5.26166 12.5165 5.68998 12.1718C6.31752 11.6529 7.02812 11.2466 7.79103 10.9703C8.72606 10.6327 9.72001 10.4947 10.7103 10.5651C11.7007 10.6378 12.668 10.9027 13.5596 11.3453C14.2863 11.7074 14.955 12.1784 15.5431 12.7423C15.7675 12.9601 15.9806 13.1896 16.1812 13.43C16.267 13.5386 16.3482 13.6387 16.4191 13.7341C16.49 13.8295 16.5544 13.9164 16.6057 13.9977L16.7494 14.213C16.7895 14.2763 16.8222 14.3301 16.8502 14.3736C16.8781 14.417 16.8968 14.4492 16.9127 14.4728C16.9188 14.4847 16.9263 14.4958 16.9351 14.5058C16.9298 14.4937 16.9236 14.482 16.9164 14.4709L16.8585 14.3689C16.8324 14.3245 16.8016 14.2688 16.7653 14.2045L16.6253 13.9863C16.5721 13.9042 16.5068 13.8173 16.4387 13.72C16.3706 13.6227 16.2885 13.5225 16.2036 13.413C16.0044 13.1698 15.7923 12.9377 15.5683 12.7178C14.9805 12.1459 14.3101 11.6681 13.5801 11.3009C12.6842 10.8534 11.7113 10.5856 10.715 10.5122C9.71804 10.4419 8.71757 10.5821 7.77703 10.9241C7.01046 11.2041 6.29722 11.6157 5.66852 12.1407C5.23957 12.4886 4.87341 12.9092 4.58628 13.3837C4.47973 13.5588 4.39363 13.7458 4.32972 13.941Z" fill="#263238"/>
<path d="M17.2584 15.1019C17.2584 15.1161 22.7368 15.3994 29.4943 15.7357C36.2518 16.072 41.733 16.3345 41.7339 16.3213C41.7348 16.3081 36.2564 16.0238 29.4971 15.6866C22.7377 15.3494 17.2584 15.0887 17.2584 15.1019Z" fill="#263238"/>
<path d="M45.4102 7.15338L43.8418 7.10332L44.1199 7.28751L45.4102 7.15338Z" fill="#263238"/>
<path d="M39.8244 7.67194C39.816 7.69461 40.1416 8.42003 40.1416 8.42003L39.8981 8.65051H38.716C38.716 8.65051 37.783 7.64454 37.8148 7.67194C37.8465 7.69933 39.774 7.67194 39.774 7.67194" fill="#FFA633"/>
<path opacity="0.4" d="M39.8151 7.67194C39.8067 7.69461 40.1323 8.42003 40.1323 8.42003L39.8888 8.65051H38.7067C38.7067 8.65051 37.7738 7.64454 37.8055 7.67194C37.8372 7.69933 39.7647 7.67194 39.7647 7.67194" fill="black"/>
<path d="M40.0742 6.86997C40.0938 6.91058 39.9082 7.42348 39.7944 7.73708C39.768 7.80766 39.721 7.86843 39.6597 7.91129C39.5983 7.95416 39.5256 7.97708 39.451 7.977H37.2483L37.155 6.40146L37.8883 5.64581C37.8883 5.64581 39.8037 6.32401 40.0742 6.86997Z" fill="#FFA633"/>
<path d="M40.0747 6.86996C40.0491 6.81255 40.0134 6.76037 39.9693 6.716C39.8464 6.5914 39.7081 6.48345 39.5578 6.39485C39.0295 6.08533 38.4731 5.82786 37.8962 5.62597L37.8832 5.62125L37.8729 5.63164L37.1386 6.38729L37.1312 6.39485V6.40618C37.1452 6.65554 37.1601 6.9153 37.175 7.18072C37.19 7.44615 37.2058 7.7229 37.2207 7.98077V8.00344H37.2431H38.6501H39.2546H39.3927C39.4384 8.00562 39.4841 8.00213 39.5289 7.99305C39.6145 7.97344 39.6909 7.92478 39.7454 7.85514C39.7872 7.79 39.8187 7.7186 39.8387 7.64356L39.9068 7.45465C39.9478 7.33469 39.9823 7.23173 40.0094 7.14766C40.0635 6.97953 40.0803 6.8813 40.0691 6.88035C40.0532 6.97015 40.0275 7.0579 39.9926 7.142C39.9628 7.22606 39.9264 7.33091 39.8834 7.44615C39.8611 7.50471 39.8377 7.56894 39.8125 7.63506C39.7918 7.70657 39.7603 7.77442 39.7192 7.83625C39.6687 7.89954 39.5982 7.94325 39.5196 7.95999C39.4771 7.96774 39.4339 7.97059 39.3908 7.96849H39.2546H38.6501H37.2431L37.2674 7.99116C37.2525 7.73329 37.2375 7.46504 37.2217 7.19111C37.2058 6.91719 37.1909 6.66593 37.1769 6.41657L37.1704 6.43452L37.9018 5.67886L37.8785 5.68359C38.4537 5.88277 39.0101 6.13377 39.541 6.43357C39.6911 6.5191 39.8304 6.62248 39.9562 6.7415C39.999 6.78109 40.0386 6.82404 40.0747 6.86996Z" fill="#263238"/>
<path d="M37.1809 6.38643C37.2167 6.4013 37.2539 6.41238 37.292 6.41949C37.3647 6.43838 37.4702 6.46294 37.6008 6.49128C37.8629 6.54889 38.2249 6.62162 38.627 6.69152C39.0291 6.76142 39.3958 6.81526 39.6608 6.84832C39.7942 6.86532 39.9015 6.8776 39.9761 6.88516C40.0144 6.89082 40.0531 6.89272 40.0918 6.89083C40.0553 6.8779 40.0174 6.86934 39.9789 6.86532L39.6664 6.81432C39.4023 6.77181 39.0375 6.71325 38.6354 6.64335C38.2333 6.57345 37.8704 6.50639 37.6092 6.45444L37.2976 6.39776C37.2593 6.38942 37.2201 6.38562 37.1809 6.38643Z" fill="#263238"/>
<path d="M39.5174 7.96001C39.613 8.21091 39.7383 8.44911 39.8906 8.66937C39.8514 8.54099 39.7969 8.41792 39.7283 8.30288C39.6724 8.18014 39.6016 8.06496 39.5174 7.96001Z" fill="#263238"/>
<path d="M27.1502 7.8146C27.1502 7.82782 29.2111 7.95156 31.7553 8.08947C34.2995 8.22737 36.3623 8.32939 36.3623 8.31805C36.3623 8.30672 34.3014 8.18109 31.7572 8.04224C29.213 7.90339 27.1511 7.80043 27.1502 7.8146Z" fill="white"/>
<path d="M17.2238 7.26666C17.2238 7.27988 19.1186 7.39323 21.4567 7.5198C23.7947 7.64637 25.6914 7.738 25.6914 7.72477C25.6914 7.71155 23.7975 7.59726 21.4595 7.47068C19.1214 7.34411 17.2247 7.25249 17.2238 7.26666Z" fill="white"/>
<path d="M28.7238 0.818187C28.7409 0.8229 28.7584 0.82606 28.7761 0.827632L28.9244 0.847468L29.4702 0.912643C29.9367 0.968373 30.5692 1.04866 31.2708 1.15067C31.9724 1.25269 32.6059 1.35753 33.064 1.43404L33.6061 1.5285L33.7544 1.55211C33.7715 1.55649 33.789 1.5584 33.8066 1.55778C33.7904 1.55087 33.7736 1.54581 33.7563 1.54267L33.6098 1.50961C33.4829 1.48222 33.2982 1.44538 33.0696 1.40193C32.6134 1.31408 31.9799 1.20357 31.2774 1.10156C30.5748 0.999543 29.9367 0.924922 29.4739 0.877694C29.2435 0.855024 29.056 0.838023 28.9263 0.828577L28.777 0.818187C28.7594 0.815752 28.7415 0.815752 28.7238 0.818187Z" fill="white"/>
<path d="M38.5949 6.21353C38.5903 6.2277 38.8356 6.31271 39.1277 6.44117C39.4197 6.56963 39.6483 6.69337 39.6548 6.68015C39.4984 6.56342 39.3274 6.46813 39.1463 6.39678C38.9715 6.31082 38.786 6.24918 38.5949 6.21353Z" fill="white"/>
<path d="M46.7702 7.39705L46.7945 7.40272L46.8663 7.41405L47.1462 7.45467C47.3869 7.48773 47.7349 7.53873 48.165 7.60485C49.0243 7.73709 50.2073 7.94112 51.5041 8.21882C52.8009 8.49652 53.9653 8.79689 54.804 9.02926C55.2229 9.14449 55.5616 9.24178 55.7948 9.31263L56.0645 9.38914L56.1344 9.40803C56.1421 9.41124 56.1504 9.41285 56.1587 9.41275L56.1363 9.4033L56.0673 9.37969L55.8004 9.29468C55.5681 9.22006 55.2313 9.11899 54.8134 8.99809C53.9737 8.75722 52.8131 8.45307 51.5144 8.17348C50.2157 7.89389 49.0308 7.69647 48.1697 7.57368C47.7396 7.51134 47.3906 7.466 47.149 7.43861L46.8691 7.40744L46.7973 7.40083C46.7886 7.39787 46.7794 7.39659 46.7702 7.39705Z" fill="white"/>
<path d="M48.0775 11.3189C48.098 11.3205 48.1186 11.3205 48.1391 11.3189H48.3145C48.391 11.3189 48.4843 11.3189 48.5944 11.3274C48.7045 11.3359 48.8267 11.3359 48.962 11.351L49.1756 11.3718C49.2493 11.3794 49.3258 11.3926 49.4051 11.403C49.5647 11.4219 49.7326 11.4568 49.9099 11.4899C50.2917 11.5731 50.6678 11.681 51.036 11.8129C51.4032 11.9485 51.7612 12.1082 52.1079 12.2909C52.2656 12.3796 52.4177 12.4599 52.553 12.5478C52.6201 12.5912 52.6882 12.63 52.7498 12.6715L52.9271 12.7924C53.0418 12.868 53.1389 12.9454 53.2266 13.0097C53.3143 13.0739 53.387 13.1334 53.4458 13.1825L53.5839 13.293C53.5994 13.307 53.6163 13.3193 53.6343 13.3299C53.6215 13.3133 53.6068 13.2984 53.5904 13.2855L53.4579 13.1674C53.401 13.1164 53.3301 13.055 53.2424 12.9879C53.1547 12.9209 53.0605 12.8415 52.9467 12.7641L52.7703 12.6394C52.7088 12.5969 52.6416 12.5572 52.5735 12.5128C52.4391 12.424 52.2871 12.3409 52.1294 12.2512C51.4349 11.8744 50.6892 11.6039 49.9164 11.4483C49.7382 11.4162 49.5693 11.3831 49.4089 11.3652C49.3286 11.3557 49.2521 11.3435 49.1775 11.3368L48.9629 11.3198C48.8267 11.3057 48.7026 11.3066 48.5897 11.3028C48.4768 11.2991 48.3873 11.3028 48.3098 11.3028L48.1344 11.3095C48.1152 11.3104 48.0961 11.3136 48.0775 11.3189Z" fill="white"/>
<path d="M10.0887 10.8088C10.1088 10.8139 10.1295 10.8164 10.1503 10.8164L10.3275 10.8268C10.404 10.8268 10.4973 10.8353 10.6074 10.8475C10.7175 10.8598 10.8397 10.8664 10.975 10.8891L11.1887 10.9193C11.2624 10.9297 11.3389 10.9477 11.4182 10.9618C11.5777 10.9883 11.7447 11.0317 11.921 11.0742C12.3021 11.1747 12.6762 11.301 13.0406 11.4521C13.4027 11.6083 13.7542 11.7885 14.093 11.9914C14.246 12.0859 14.3943 12.1803 14.525 12.2748C14.5912 12.322 14.6565 12.3645 14.7115 12.4098L14.8823 12.543C14.9933 12.6243 15.0857 12.7093 15.1696 12.7792C15.2536 12.8491 15.3245 12.9124 15.3805 12.9681L15.512 13.088C15.5267 13.1027 15.543 13.1157 15.5605 13.1268C15.5481 13.11 15.534 13.0945 15.5186 13.0805L15.3935 12.9539C15.3394 12.8982 15.2713 12.8321 15.1883 12.7603C15.1053 12.6885 15.0138 12.6016 14.9084 12.5175L14.7386 12.3815C14.6789 12.3352 14.6136 12.287 14.552 12.2427C14.4214 12.1482 14.2721 12.0537 14.12 11.9536C13.443 11.5357 12.7072 11.2242 11.9378 11.0298C11.7596 10.9892 11.5917 10.9467 11.4312 10.9212C11.351 10.908 11.2745 10.8919 11.1999 10.8815L10.9853 10.8541C10.8491 10.8343 10.724 10.8286 10.6121 10.8201C10.5001 10.8116 10.4087 10.8079 10.3322 10.8079H10.1549L10.0887 10.8088Z" fill="white"/>
<path opacity="0.4" d="M27.706 9.75187C27.706 10.0825 28.1902 10.3507 28.7873 10.3507C29.3844 10.3507 29.8687 10.0825 29.8687 9.75187C29.8687 9.42127 29.3844 9.15207 28.7873 9.15207C28.1902 9.15207 27.706 9.42032 27.706 9.75187Z" fill="black"/>
<path d="M27.5268 10.0447H30.0458C30.1226 10.0447 30.1962 10.0139 30.2506 9.95897C30.305 9.90408 30.3357 9.8296 30.3359 9.75186C30.3359 9.67395 30.3054 9.59923 30.251 9.54414C30.1965 9.48905 30.1227 9.4581 30.0458 9.4581H27.5268C27.4498 9.4581 27.376 9.48905 27.3216 9.54414C27.2672 9.59923 27.2366 9.67395 27.2366 9.75186C27.2366 9.79039 27.2441 9.82855 27.2587 9.86413C27.2733 9.89972 27.2947 9.93204 27.3217 9.95925C27.3486 9.98645 27.3806 10.008 27.4158 10.0227C27.451 10.0373 27.4887 10.0448 27.5268 10.0447Z" fill="#FFA633"/>
<path d="M27.5263 10.0447C27.5033 10.0414 27.4806 10.037 27.4581 10.0314C27.3951 10.0135 27.3399 9.97455 27.3014 9.92091C27.2718 9.87913 27.254 9.82997 27.2499 9.77872C27.2458 9.72747 27.2555 9.67606 27.2781 9.62999C27.3054 9.57242 27.352 9.52655 27.4096 9.50058C27.477 9.47578 27.5492 9.46705 27.6205 9.47508L30.0462 9.48263C30.1123 9.4829 30.176 9.5081 30.2247 9.55331C30.2735 9.59852 30.3039 9.6605 30.3099 9.72716C30.316 9.79382 30.2973 9.86037 30.2575 9.91383C30.2177 9.9673 30.1597 10.0038 30.0947 10.0163C30.042 10.0216 29.989 10.0235 29.9361 10.022H29.6208L28.5301 10.0276L27.7949 10.0352H27.5953C27.5719 10.0354 27.5485 10.037 27.5253 10.0399C27.5484 10.0442 27.5718 10.0461 27.5953 10.0456H27.7949L28.5301 10.0532L29.6208 10.0579H29.9361C29.9918 10.0605 30.0476 10.0589 30.1031 10.0532C30.1807 10.0395 30.2503 9.99674 30.2982 9.93346C30.3461 9.87017 30.3687 9.79096 30.3615 9.71158C30.3543 9.6322 30.3179 9.55845 30.2595 9.50501C30.2011 9.45156 30.1249 9.42233 30.0462 9.42313L27.6205 9.43068C27.5813 9.43068 27.5449 9.43068 27.5057 9.43068C27.4678 9.43314 27.4307 9.44308 27.3966 9.45996C27.356 9.47936 27.3203 9.50769 27.292 9.54287C27.2637 9.57806 27.2435 9.61922 27.233 9.66333C27.2224 9.70744 27.2217 9.75339 27.231 9.79779C27.2402 9.8422 27.2592 9.88395 27.2865 9.91997C27.3284 9.97555 27.3887 10.0141 27.4563 10.0286C27.4784 10.0385 27.5021 10.0439 27.5263 10.0447Z" fill="#263238"/>
<path d="M27.7797 9.52044C27.7797 9.53366 28.2704 9.545 28.8759 9.545C29.4814 9.545 29.9722 9.53366 29.9722 9.52044C29.9722 9.50721 29.4814 9.49588 28.8759 9.49588C28.2704 9.49588 27.7797 9.50627 27.7797 9.52044Z" fill="white"/>
<path opacity="0.4" d="M14.3066 9.75187C14.3066 10.0825 14.7908 10.3507 15.3879 10.3507C15.985 10.3507 16.4692 10.0825 16.4692 9.75187C16.4692 9.42127 15.985 9.15207 15.3879 9.15207C14.7908 9.15207 14.3066 9.42032 14.3066 9.75187Z" fill="black"/>
<path d="M14.1274 10.0447H16.6464C16.6844 10.0448 16.7221 10.0373 16.7573 10.0227C16.7925 10.008 16.8245 9.98645 16.8515 9.95925C16.8784 9.93204 16.8998 9.89972 16.9144 9.86413C16.929 9.82855 16.9365 9.79039 16.9365 9.75186C16.9365 9.67395 16.906 9.59923 16.8515 9.54414C16.7971 9.48905 16.7233 9.4581 16.6464 9.4581H14.1274C14.0504 9.4581 13.9766 9.48905 13.9222 9.54414C13.8678 9.59923 13.8372 9.67395 13.8372 9.75186C13.8372 9.79039 13.8447 9.82855 13.8593 9.86413C13.8739 9.89972 13.8953 9.93204 13.9222 9.95925C13.9492 9.98645 13.9812 10.008 14.0164 10.0227C14.0516 10.0373 14.0893 10.0448 14.1274 10.0447Z" fill="#FFA633"/>
<path d="M14.1271 10.0447C14.1041 10.0414 14.0814 10.037 14.0589 10.0314C13.9959 10.0135 13.9407 9.97455 13.9022 9.92091C13.8726 9.87913 13.8548 9.82997 13.8507 9.77872C13.8466 9.72747 13.8563 9.67606 13.8789 9.62999C13.9064 9.57261 13.953 9.52683 14.0104 9.50058C14.0778 9.47578 14.15 9.46705 14.2213 9.47508L16.647 9.48263C16.7005 9.48185 16.7531 9.49745 16.7977 9.52739C16.8423 9.55732 16.877 9.60021 16.8972 9.65043C16.9173 9.70065 16.9221 9.75587 16.9107 9.80885C16.8994 9.86183 16.8725 9.9101 16.8336 9.94736C16.7967 9.98304 16.7503 10.007 16.7002 10.0163C16.6475 10.0216 16.5945 10.0235 16.5416 10.022H16.2262L15.1356 10.0276L14.4004 10.0352H14.2007C14.1774 10.0354 14.154 10.037 14.1308 10.0399C14.1538 10.0442 14.1773 10.0461 14.2007 10.0456H14.4004L15.1356 10.0532L16.2262 10.0579H16.5416C16.5973 10.0605 16.6531 10.0589 16.7086 10.0532C16.7861 10.0395 16.8558 9.99674 16.9037 9.93346C16.9515 9.87017 16.9741 9.79096 16.967 9.71158C16.9598 9.6322 16.9234 9.55845 16.865 9.50501C16.8065 9.45156 16.7304 9.42233 16.6517 9.42313L14.2259 9.43068C14.1868 9.43068 14.1504 9.43068 14.1121 9.43068C14.0739 9.43301 14.0365 9.44296 14.002 9.45996C13.9616 9.47949 13.926 9.50788 13.8978 9.54309C13.8696 9.57829 13.8495 9.61941 13.8389 9.66346C13.8284 9.70752 13.8277 9.7534 13.8369 9.79777C13.846 9.84214 13.8648 9.88388 13.8919 9.91997C13.9339 9.97555 13.9941 10.0141 14.0617 10.0286C14.0824 10.0379 14.1045 10.0433 14.1271 10.0447Z" fill="#263238"/>
<path d="M14.0118 9.54592C14.0118 9.55914 14.6351 9.57048 15.4029 9.57048C16.1707 9.57048 16.7939 9.55914 16.7939 9.54592C16.7939 9.5327 16.1717 9.52136 15.4029 9.52136C14.6341 9.52136 14.0118 9.53364 14.0118 9.54592Z" fill="white"/>
</svg>
