<svg width="60" height="20" viewBox="0 0 60 20" fill="none" xmlns="http://www.w3.org/2000/svg">
<path d="M19.852 1.06111L11.0728 6.60417L44.2389 6.9787L32.6833 0.986206L19.852 1.06111Z" fill="#767F89"/>
<path d="M18.5397 4.80643C18.4467 4.80643 18.3536 4.76823 18.2868 4.69332C18.163 4.55399 18.1758 4.34126 18.3146 4.21767L21.8106 1.1158C21.9501 0.992208 22.1632 1.00494 22.287 1.14352C22.4109 1.28284 22.3981 1.49558 22.2593 1.61917L18.7633 4.72104C18.6988 4.77796 18.6193 4.80643 18.539 4.80643H18.5397Z" fill="#A8AEB4"/>
<path d="M17.0837 9.569C16.9906 9.569 16.8976 9.5308 16.8308 9.45589C16.707 9.31657 16.7197 9.10383 16.8586 8.98024L22.9365 3.58699C23.0761 3.4634 23.2892 3.47613 23.413 3.61471C23.5368 3.75403 23.5241 3.96677 23.3852 4.09036L17.3073 9.48361C17.2427 9.54053 17.1632 9.569 17.0829 9.569H17.0837Z" fill="#A8AEB4"/>
<path d="M26.1633 8.89481C26.0702 8.89481 25.9772 8.8566 25.9104 8.7817C25.7866 8.64237 25.7993 8.42964 25.9381 8.30604L32.0161 2.9128C32.1557 2.7892 32.3688 2.80194 32.4926 2.94052C32.6164 3.07984 32.6036 3.29257 32.4648 3.41617L26.3869 8.80941C26.3223 8.86634 26.2428 8.89481 26.1625 8.89481H26.1633Z" fill="#A8AEB4"/>
<path d="M33.8916 5.22448C33.7993 5.22448 33.707 5.18703 33.6402 5.11212C33.5156 4.97355 33.5269 4.76082 33.6657 4.63647L36.2095 2.35783C36.3483 2.23348 36.5621 2.24472 36.6859 2.38329C36.8105 2.52187 36.7992 2.7346 36.6604 2.85895L34.1167 5.13759C34.0522 5.19527 33.9719 5.22373 33.8916 5.22373V5.22448Z" fill="#A8AEB4"/>
<path d="M12.8739 19.6379C15.1947 19.6379 17.076 17.7599 17.076 15.4432C17.076 13.1265 15.1947 11.2484 12.8739 11.2484C10.5532 11.2484 8.67188 13.1265 8.67188 15.4432C8.67188 17.7599 10.5532 19.6379 12.8739 19.6379Z" fill="#68727C"/>
<path d="M48.2162 19.6379C50.5369 19.6379 52.4183 17.7599 52.4183 15.4432C52.4183 13.1265 50.5369 11.2484 48.2162 11.2484C45.8955 11.2484 44.0142 13.1265 44.0142 15.4432C44.0142 17.7599 45.8955 19.6379 48.2162 19.6379Z" fill="#68727C"/>
<path d="M12.7988 17.5404C13.9591 17.5404 14.8998 16.6014 14.8998 15.4431C14.8998 14.2847 13.9591 13.3457 12.7988 13.3457C11.6384 13.3457 10.6978 14.2847 10.6978 15.4431C10.6978 16.6014 11.6384 17.5404 12.7988 17.5404Z" fill="#BDC2C7"/>
<path d="M48.1416 17.5404C49.3019 17.5404 50.2426 16.6014 50.2426 15.4431C50.2426 14.2847 49.3019 13.3457 48.1416 13.3457C46.9812 13.3457 46.0405 14.2847 46.0405 15.4431C46.0405 16.6014 46.9812 17.5404 48.1416 17.5404Z" fill="#BDC2C7"/>
<path d="M59.5091 15.4244L57.8583 9.12325C57.6707 8.50528 57.333 8.12625 56.7327 7.99516L43.4468 5.30304L36.4729 1.9435C34.9346 1.11953 32.9837 0.387695 31.5392 0.387695H19.6459C18.7079 0.387695 16.3443 1.15548 15.6877 1.41765L7.49297 4.65735L3.15661 5.29929C2.55632 5.39292 2.12486 5.78393 2.03106 6.42064L0.680402 15.4266C0.605366 16.0633 1.18465 16.5674 1.80595 16.5674H7.21234C7.22284 16.0431 7.2461 15.6176 7.2461 15.1255C7.2461 12.085 9.71556 9.61089 12.7613 9.61089C15.807 9.61089 18.2765 12.0895 18.2765 15.1307C18.2765 15.6229 18.299 16.0438 18.3102 16.5682H42.6304C42.6409 16.0438 42.6641 15.6184 42.6641 15.1262C42.6641 12.0858 45.1336 9.61164 48.1793 9.61164C51.225 9.61164 53.6945 12.0903 53.6945 15.1315C53.6945 15.6236 53.717 16.0446 53.7283 16.5689H58.3843C59.0056 16.5689 59.6224 16.0633 59.5098 15.4266L59.5091 15.4244ZM24.3169 5.93H13.6617C13.0404 5.93 17.7887 2.85885 17.7887 2.85885C18.4761 2.37196 20.0023 1.73526 21.3155 1.73526H24.1669C24.7882 1.73526 25.2924 2.22889 25.2924 2.84986L25.4425 4.78843C25.5303 5.37495 24.9382 5.93075 24.3169 5.93075V5.93ZM40.7777 6.22963H29.9724C29.3511 6.22963 28.9504 5.70528 28.8469 5.08731L28.3967 2.84911C28.3967 2.22889 28.9009 1.73451 29.5222 1.73451H30.3761C31.6893 1.73451 34.0154 2.48357 34.8971 2.8581C34.8971 2.8581 41.399 6.22888 40.7777 6.22888V6.22963Z" fill="#F26A21"/>
<path d="M56.7326 7.99443L43.4466 5.30231L36.4727 1.94276C34.9345 1.1188 32.9835 0.386963 31.5391 0.386963H19.6458C18.7078 0.386963 16.3442 1.15475 15.6876 1.41692L7.49285 4.65661L3.15648 5.29856C2.55619 5.39219 2.12473 5.7832 2.03093 6.4199L1.77881 8.0993C3.78979 9.17196 6.30952 10.1188 9.21944 10.9008C10.1777 10.0963 11.4128 9.61091 12.7612 9.61091C14.8689 9.61091 16.6998 10.7982 17.628 12.5367C21.2433 13.0131 25.1655 13.2738 29.2632 13.2738C34.3822 13.2738 39.2273 12.8671 43.5427 12.1412C44.5249 10.6206 46.2327 9.61091 48.1777 9.61091C49.2207 9.61091 50.1954 9.90154 51.0276 10.4057C53.2749 9.71278 55.2446 8.91428 56.8722 8.03263C56.8272 8.0184 56.7806 8.00567 56.7319 7.99518L56.7326 7.99443ZM24.3168 5.93002H13.6616C13.0403 5.93002 17.7886 2.85887 17.7886 2.85887C18.476 2.37198 20.0022 1.73527 21.3153 1.73527H24.1667C24.788 1.73527 25.2923 2.22891 25.2923 2.84988L25.4423 4.78845C25.5301 5.37496 24.9381 5.93077 24.3168 5.93077V5.93002ZM40.7776 6.22964H29.9723C29.351 6.22964 28.9503 5.7053 28.8468 5.08732L28.3965 2.84913C28.3965 2.22891 28.9008 1.73452 29.5221 1.73452H30.376C31.6891 1.73452 34.0153 2.48359 34.897 2.85812C34.897 2.85812 41.3989 6.22889 40.7776 6.22889V6.22964Z" fill="#F58C55"/>
<path d="M55.8452 10.1121L56.5708 12.5967H58.6463L58.0963 10.1742L55.8452 10.1121Z" fill="white"/>
<path d="M1.84329 7.72778H4.16942L3.63741 10.8738H1.39307L1.84329 7.72778Z" fill="#FBD4BF"/>
<path d="M2.27012 19.0806H22.8001L21.1501 18.6306H0.620117L2.27012 19.0806Z" fill="#606060"/>
<path d="M39.4701 19.0806H60.0001L58.3401 18.6306H37.8101L39.4701 19.0806Z" fill="#606060"/>
<path d="M43.25 5.80063C43.25 5.80063 38.41 3.05063 36.86 2.29063C35.791 1.7908 34.6883 1.36642 33.56 1.02063L32.75 1.38063L37.01 3.70064L41.58 6.35065L43.25 5.80063Z" fill="#455A64"/>
<path d="M43.7499 5.43066L42.6899 5.49066L41.1299 5.86066L42.4399 6.16066L43.6199 5.72066L43.7499 5.43066Z" fill="#263238"/>
<path d="M14.2098 1.27065C11.7088 2.41555 9.14463 3.41717 6.52979 4.27065L7.03979 5.37066L10.0398 4.59066L12.4298 2.99066L14.8398 1.99066C14.8398 1.99066 15.4598 1.28066 15.3798 1.26066C15.2998 1.24066 14.2098 1.27065 14.2098 1.27065Z" fill="#455A64"/>
<path d="M54.2001 15.3006C53.7301 15.4506 19.4301 15.3006 19.4301 15.3006L4.81006 14.4006L5.24005 8.69061L51.2401 8.62061L54.5401 10.8106V15.0606L54.1701 15.3306" fill="#FFA633"/>
<path d="M48.7 9.31064C49.4455 9.31683 50.1808 9.4842 50.8556 9.80125C51.5304 10.1183 52.1286 10.5775 52.6093 11.1474C53.0899 11.7174 53.4416 12.3845 53.6402 13.1031C53.8389 13.8217 53.8797 14.5748 53.76 15.3106C52.58 15.3106 49.19 15.3106 44.98 15.3106H43.64C43.5881 15.0067 43.5614 14.699 43.56 14.3906C43.56 13.0274 44.1015 11.72 45.0655 10.7561C46.0294 9.79217 47.3368 9.25065 48.7 9.25065M11.87 9.25065C12.604 9.24786 13.33 9.4029 13.9988 9.7053C14.6676 10.0077 15.2636 10.4504 15.7463 11.0033C16.2291 11.5562 16.5873 12.2065 16.7967 12.9099C17.0061 13.6134 17.0618 14.3537 16.96 15.0806L6.72998 14.4306C6.72998 13.0674 7.27151 11.7601 8.23544 10.7961C9.19938 9.83218 10.5068 9.29066 11.87 9.29066" fill="#B27424"/>
<path d="M1.04004 8.59066C1.04004 8.59066 1.11005 7.35064 1.11005 6.98064C1.18418 6.56459 1.31541 6.1608 1.50003 5.78066L1.35004 4.93065C1.35004 4.72065 1.73003 4.73066 2.03003 4.75066H2.28003C3.70767 4.71795 5.12974 4.56068 6.53003 4.28066L7.04004 4.75066C8.04004 4.53066 14.65 1.51065 14.65 1.51065C14.5085 1.41864 14.3615 1.33515 14.21 1.26065C14.1 1.26065 16.21 0.420658 23.34 0.0606578C30.47 -0.299342 33.75 1.06066 33.75 1.06066L32.99 1.31066C35.99 2.04066 41.14 5.82067 41.14 5.82067C43.57 5.82067 43.83 5.31066 43.83 5.31066C48.3007 5.54357 52.7137 6.42616 56.93 7.93065C57.5292 8.15095 58.077 8.49123 58.54 8.93065C58.8 9.30065 58.72 9.67064 58.75 10.1406C58.9232 10.6087 59.0701 11.0862 59.19 11.5707C59.2082 12.6032 59.1007 13.6341 58.87 14.6406C58.87 14.7206 59.77 15.0807 59.41 15.1907C57.7148 15.536 55.9971 15.7599 54.2701 15.8606H53.62C53.7618 15.387 53.8326 14.895 53.83 14.4007C53.8607 13.7073 53.7505 13.0148 53.5063 12.3652C53.262 11.7155 52.8887 11.122 52.4088 10.6205C51.929 10.119 51.3525 9.71989 50.7143 9.44722C50.076 9.17456 49.3891 9.03399 48.695 9.03399C48.001 9.03399 47.3141 9.17456 46.6758 9.44722C46.0375 9.71989 45.4611 10.119 44.9812 10.6205C44.5014 11.122 44.1281 11.7155 43.8838 12.3652C43.6396 13.0148 43.5294 13.7073 43.56 14.4007C43.5584 14.8917 43.6292 15.3803 43.7701 15.8507H43.72C41.32 15.8507 21.09 15.7707 17.01 15.6307H16.86C16.961 15.2319 17.0113 14.822 17.01 14.4107C17.01 13.0475 16.4685 11.74 15.5046 10.7761C14.5406 9.81217 13.2332 9.27065 11.87 9.27065C10.5068 9.27065 9.19944 9.81217 8.2355 10.7761C7.27157 11.74 6.73004 13.0475 6.73004 14.4107C6.73474 14.6749 6.75477 14.9387 6.79004 15.2006C5.08133 15.0705 3.38174 14.8401 1.70004 14.5106L0.390045 13.1307L0.0400391 10.0707L1.04004 8.55065" fill="#FFA633"/>
<path d="M40.7202 7.19067H41.2302H42.6102C43.7702 7.19067 45.3902 7.28066 47.1602 7.43066C48.9302 7.58066 50.5302 7.78066 51.6902 7.96066L53.0502 8.19067L53.4202 8.26065L53.0502 8.18066C52.7302 8.12066 52.2702 8.03067 51.6902 7.94067C50.5402 7.75067 48.9402 7.55067 47.1602 7.40067C45.3802 7.25067 43.7802 7.18065 42.6102 7.17065C42.1902 7.17065 41.8302 7.17065 41.5402 7.17065H40.7202" fill="#263238"/>
<path d="M55.6299 15.0307C55.6299 15.0307 56.3199 12.7406 56.6299 12.7106C57.1799 12.6248 57.7399 12.6248 58.2899 12.7106C58.3501 13.2924 58.3501 13.8789 58.2899 14.4606L55.6299 15.0307Z" fill="#263238"/>
<path d="M52.7598 11.2507H55.0498H55.2097C55.3 11.2166 55.3818 11.1631 55.4492 11.094C55.5165 11.0249 55.568 10.9418 55.5998 10.8507C55.6133 10.778 55.6133 10.7034 55.5998 10.6307V10.4707C55.5998 10.3807 55.5998 10.3307 55.5998 10.3307C55.5998 10.3307 55.5998 10.3307 55.5998 10.4707C55.6041 10.596 55.5872 10.7211 55.5498 10.8407C55.5176 10.925 55.4681 11.0015 55.4043 11.0652C55.3405 11.129 55.264 11.1786 55.1797 11.2107H55.0298H52.7397L52.7598 11.2507Z" fill="#263238"/>
<path d="M39.3999 5.90066C37.4634 4.64044 35.4605 3.48543 33.3999 2.44066C31.9389 1.82045 30.3965 1.41297 28.8199 1.23067C27.7299 1.12067 26.0899 1.13067 25.0899 1.11067C24.0899 1.09067 20.8299 1.33067 19.6899 1.48067C18.2874 1.58776 16.9123 1.92564 15.6199 2.48067C14.1054 3.2029 12.6821 4.10253 11.3799 5.16066C11.3799 5.33066 11.5099 5.25067 11.5099 5.25067L39.3899 5.85068" fill="#455A64"/>
<path d="M25.9498 1.12061L27.3098 5.64061L25.1198 5.59061L24.5698 1.12061H25.9498Z" fill="#263238"/>
<path d="M28.7302 7.40063C28.8956 7.40326 29.0533 7.47079 29.1692 7.58865C29.2852 7.70652 29.3502 7.86527 29.3502 8.03064C29.3615 8.11935 29.3537 8.20945 29.3274 8.29492C29.3012 8.3804 29.257 8.45928 29.1979 8.52637C29.1387 8.59345 29.066 8.64721 28.9845 8.68402C28.903 8.72083 28.8146 8.73984 28.7252 8.73984C28.6358 8.73984 28.5474 8.72083 28.4659 8.68402C28.3844 8.64721 28.3117 8.59345 28.2526 8.52637C28.1934 8.45928 28.1493 8.3804 28.123 8.29492C28.0967 8.20945 28.089 8.11935 28.1002 8.03064C28.1002 7.86355 28.1666 7.70329 28.2847 7.58514C28.4029 7.467 28.5631 7.40063 28.7302 7.40063Z" fill="#B27424"/>
<path d="M29.8598 7.74072H27.6198C27.4652 7.74072 27.3398 7.86608 27.3398 8.02072V8.04072C27.3398 8.19536 27.4652 8.32072 27.6198 8.32072H29.8598C30.0145 8.32072 30.1398 8.19536 30.1398 8.04072V8.02072C30.1398 7.86608 30.0145 7.74072 29.8598 7.74072Z" fill="#FFA633"/>
<path d="M27.6301 8.32067H27.5601C27.5035 8.30419 27.4541 8.26892 27.4202 8.22066C27.3889 8.19137 27.3679 8.15279 27.3602 8.11064C27.3552 8.06077 27.3552 8.01053 27.3602 7.96065C27.3797 7.90277 27.4176 7.85286 27.4682 7.81856C27.5187 7.78426 27.5791 7.76743 27.6402 7.77065H29.8602C29.9098 7.77257 29.9578 7.78868 29.9986 7.81703C30.0393 7.84539 30.0711 7.88481 30.0901 7.93065C30.1054 7.97607 30.1054 8.02524 30.0901 8.07067C30.1003 8.1134 30.1003 8.15791 30.0901 8.20064C30.062 8.23955 30.024 8.27026 29.9801 8.2896C29.9361 8.30893 29.8878 8.3162 29.8401 8.31066C29.8934 8.31982 29.9482 8.31337 29.9979 8.29207C30.0476 8.27078 30.09 8.23556 30.1201 8.19066C30.1583 8.14603 30.1795 8.08938 30.1801 8.03066C30.1946 7.97831 30.1946 7.923 30.1801 7.87065C30.1594 7.81633 30.1223 7.76982 30.0739 7.73757C30.0255 7.70531 29.9683 7.68891 29.9101 7.69066H27.6901C27.6538 7.68824 27.6174 7.69319 27.583 7.70522C27.5486 7.71725 27.517 7.73609 27.4901 7.76064C27.4386 7.79574 27.4027 7.84957 27.3902 7.91066C27.3757 7.96301 27.3757 8.01832 27.3902 8.07067C27.4041 8.11656 27.4243 8.16028 27.4502 8.20064C27.4939 8.24517 27.5494 8.2764 27.6102 8.29067L27.6301 8.32067Z" fill="#263238"/>
<path d="M16.4898 7.40063C16.6569 7.40063 16.8172 7.467 16.9353 7.58514C17.0535 7.70329 17.1198 7.86355 17.1198 8.03064C17.1198 8.19773 17.0535 8.35796 16.9353 8.4761C16.8172 8.59425 16.6569 8.66064 16.4898 8.66064C16.3228 8.66064 16.1625 8.59425 16.0444 8.4761C15.9262 8.35796 15.8599 8.19773 15.8599 8.03064C15.8599 7.86355 15.9262 7.70329 16.0444 7.58514C16.1625 7.467 16.3228 7.40063 16.4898 7.40063Z" fill="#B27424"/>
<path d="M17.6299 7.75061H15.3899C15.2352 7.75061 15.1099 7.87597 15.1099 8.03061V8.05061C15.1099 8.20525 15.2352 8.33061 15.3899 8.33061H17.6299C17.7845 8.33061 17.9099 8.20525 17.9099 8.05061V8.03061C17.9099 7.87597 17.7845 7.75061 17.6299 7.75061Z" fill="#FFA633"/>
<path d="M15.39 8.33064H15.33C15.271 8.31347 15.2186 8.27856 15.18 8.23063C15.1574 8.19695 15.1406 8.15981 15.13 8.12065C15.1201 8.07114 15.1201 8.02016 15.13 7.97065C15.1462 7.90996 15.1829 7.85677 15.234 7.82026C15.2851 7.78376 15.3474 7.76621 15.41 7.77064H17.63C17.6791 7.76911 17.7275 7.78267 17.7686 7.80949C17.8097 7.83631 17.8417 7.87511 17.86 7.92064C17.8754 7.96946 17.8754 8.02184 17.86 8.07066C17.8731 8.113 17.8731 8.15829 17.86 8.20063C17.8316 8.23665 17.795 8.2654 17.7533 8.28453C17.7115 8.30365 17.6659 8.31261 17.62 8.31065C17.6696 8.31987 17.7205 8.31987 17.77 8.31065C17.82 8.28259 17.8641 8.24524 17.9 8.20063C17.9313 8.15674 17.9487 8.10451 17.95 8.05064C17.9594 7.99436 17.9594 7.93694 17.95 7.88066C17.9235 7.82853 17.8836 7.78439 17.8344 7.75276C17.7852 7.72113 17.7285 7.70313 17.67 7.70063H15.45C15.3787 7.69916 15.3088 7.72015 15.25 7.76063C15.1985 7.8002 15.163 7.85701 15.15 7.92064C15.1405 7.97354 15.1405 8.02773 15.15 8.08064C15.1651 8.12491 15.1889 8.16571 15.22 8.20063C15.2559 8.25146 15.3093 8.28712 15.37 8.30064L15.39 8.33064Z" fill="#263238"/>
<path d="M4.23975 6.92065H5.67975H9.58975L22.4897 7.04068L35.3898 7.14066L22.4897 7.03067C17.4897 6.98067 12.8898 6.94066 9.58975 6.93066H4.23975V6.92065Z" fill="#263238"/>
<path d="M2.58008 6.80058L2.66006 6.67058C2.75904 6.51911 2.86934 6.37537 2.99005 6.24059C3.17229 6.04005 3.38087 5.86513 3.61008 5.7206L3.81006 5.61058L4.04007 5.51057L4.53006 5.37059C5.21006 5.19059 5.84007 5.05059 6.29007 4.96059L6.83008 4.85059H6.97006H6.82007L6.28006 4.95059C5.83006 5.03059 5.20008 5.16059 4.52008 5.34059C4.35008 5.39059 4.18008 5.43059 4.02008 5.49059L3.80008 5.59059L3.59006 5.71059C3.35639 5.85298 3.14708 6.03192 2.97006 6.24059C2.84503 6.37297 2.73747 6.52085 2.65005 6.68059C2.62118 6.7207 2.59768 6.76441 2.58008 6.81059C2.58024 6.80726 2.58024 6.80391 2.58008 6.80058Z" fill="#263238"/>
<path d="M16.3501 1.88062L16.2901 1.96062L16.1301 2.22063L15.5301 3.22063L14.5801 4.80061L13.9901 5.80061C13.8789 5.97783 13.7851 6.16537 13.7101 6.36061C13.6387 6.56997 13.6016 6.78944 13.6001 7.0106V7.06062C13.6001 7.06062 13.6001 7.12061 13.6001 7.14061L13.6601 7.30061C13.7107 7.40713 13.7675 7.51063 13.8301 7.61061L14.2001 8.23061C14.4701 8.65061 14.7501 9.0706 15.0601 9.5106C15.6601 10.3806 16.3201 11.3006 17.0601 12.2506L17.6001 12.9806C17.7761 13.234 17.97 13.4746 18.1801 13.7006C18.398 13.9346 18.6689 14.1129 18.9701 14.2206L19.1901 14.3106L19.4201 14.3806L19.6601 14.4406L19.9001 14.4906C20.2201 14.4906 20.5501 14.5506 20.9001 14.5806L21.9001 14.6306L23.9001 14.7306C26.6501 14.8406 29.2701 14.9306 31.6501 15.0006L37.9801 15.1706L42.2501 15.2706H43.4101H43.8201L37.9801 15.1206L31.6501 14.9306C29.2701 14.8606 26.6501 14.7806 23.9001 14.6606L21.9001 14.5706L20.9001 14.5106C20.5701 14.5106 20.2401 14.4606 19.9001 14.4206H19.6701L19.4401 14.3606L19.2101 14.2806L18.9801 14.2006C18.6871 14.093 18.4234 13.9184 18.2101 13.6906C18.0029 13.4621 17.8093 13.2217 17.6301 12.9706L17.0901 12.2506C16.3801 11.2506 15.7101 10.3806 15.0901 9.5106C14.7901 9.0706 14.5001 8.65061 14.2301 8.23061C14.1001 8.02061 13.9701 7.82062 13.8601 7.62062L13.6901 7.31062C13.6444 7.20726 13.6076 7.1002 13.5801 6.99062C13.5816 6.77271 13.6188 6.55655 13.6901 6.35063C13.7631 6.1545 13.857 5.96676 13.9701 5.79063C14.1701 5.44063 14.3701 5.12062 14.5501 4.79062L15.5001 3.21062L16.0901 2.21062L16.2401 1.95062L16.3501 1.88062Z" fill="#263238"/>
<path d="M10.8398 5.16064V5.09065C10.8898 5.09065 10.9598 4.96065 11.0598 4.87065C11.3777 4.61596 11.7117 4.38214 12.0598 4.17065C12.4998 3.88065 13.0598 3.54065 13.6798 3.17065C14.4044 2.76062 15.1524 2.39332 15.9198 2.07064C16.0266 2.01961 16.1369 1.97617 16.2498 1.94064L16.5798 1.82064C16.8198 1.75064 17.0498 1.68064 17.2998 1.63064C17.7898 1.50064 18.2998 1.41064 18.8498 1.32064C19.9198 1.16064 21.0798 1.05065 22.3098 0.980645C23.5398 0.910645 24.8198 0.860641 26.1498 0.850641C27.5275 0.818749 28.9049 0.929339 30.2598 1.18064C31.61 1.44565 32.9207 1.88254 34.1598 2.48065C35.3062 3.0554 36.4181 3.69649 37.4898 4.40064C38.0098 4.72064 38.4898 5.05064 38.9898 5.40064L39.7098 5.87065L39.8898 5.98063L40.0598 6.10066L40.2098 6.24064L40.3398 6.39063C40.5009 6.60357 40.629 6.83956 40.7198 7.09065C40.8051 7.33531 40.8719 7.58601 40.9198 7.84065C40.9198 8.08065 40.9898 8.33066 41.0098 8.57066C41.0298 8.81066 41.0098 9.05065 41.0098 9.28065C41.0098 9.74065 41.0098 10.1907 41.0098 10.6007C41.0098 11.0107 41.0098 11.4106 40.9498 11.7806L40.8198 13.6706L40.7398 14.8606L40.8298 13.6706C40.8298 13.1506 40.9098 12.5206 40.9598 11.7806C40.9598 11.4106 40.9598 11.0207 41.0298 10.6007C41.0998 10.1807 41.0798 9.75065 41.0298 9.28065C41.0298 9.05065 41.0298 8.81066 41.0298 8.57066C41.014 8.32247 40.984 8.07538 40.9398 7.83064C40.8966 7.57496 40.8296 7.32387 40.7398 7.08064C40.6512 6.82547 40.523 6.58587 40.3598 6.37065L40.2298 6.21064L40.0698 6.07066L39.8998 5.95063L39.7198 5.83064L38.9998 5.37065L37.4998 4.37064C36.4293 3.6645 35.3173 3.02334 34.1698 2.45065C32.9267 1.84517 31.6084 1.40799 30.2498 1.15064C28.8945 0.900979 27.5177 0.787086 26.1398 0.810647C24.8098 0.810647 23.5198 0.870637 22.2898 0.940637C21.0598 1.01064 19.9098 1.13064 18.8298 1.30064C18.2898 1.39064 17.7698 1.48064 17.2798 1.60064L16.5598 1.80064L16.2198 1.92065L15.8898 2.05064C15.1239 2.38048 14.3762 2.75101 13.6498 3.16064C13.0098 3.52064 12.4698 3.86064 12.0398 4.16064C11.7076 4.37938 11.3902 4.61991 11.0898 4.88064C11.009 4.94609 10.9353 5.01983 10.8698 5.10064C10.8473 5.12701 10.8303 5.1576 10.8198 5.19064" fill="#263238"/>
<path d="M26.9401 14.8306V14.7207C26.9401 14.6207 26.9401 14.4807 26.9401 14.3107C26.9401 13.9507 26.9401 13.4307 26.9401 12.7907C26.9611 11.1189 26.8608 9.44789 26.6401 7.79066L26.5801 7.43065L26.5201 7.07066C26.5201 6.96066 26.5201 6.84064 26.4501 6.73064L26.3601 6.39064C26.3361 6.27582 26.306 6.16233 26.2701 6.05064L26.1601 5.73064L26.1301 5.40065C26.0879 5.30385 26.0544 5.20345 26.0301 5.10065C25.9001 4.69065 25.8201 4.30065 25.7401 3.93065C25.6601 3.56065 25.6201 3.21065 25.5701 2.93065C25.4701 2.30065 25.4101 1.78065 25.3701 1.43065V1.02065V0.910645V1.06065C25.3701 1.15065 25.3701 1.29066 25.3701 1.47066C25.3701 1.83066 25.4601 2.34065 25.5501 2.98065C25.5501 3.30065 25.6501 3.64065 25.7201 3.98065C25.7896 4.37841 25.8797 4.77227 25.9901 5.16064C25.9901 5.26064 26.0601 5.36066 26.1001 5.47066C26.1401 5.58066 26.1701 5.67065 26.2001 5.78065L26.3101 6.10066L26.4001 6.43065L26.4801 6.77065C26.4801 6.88065 26.5301 7.00064 26.5501 7.11064L26.6201 7.47066C26.6201 7.59066 26.6201 7.71064 26.6201 7.83064C26.8492 9.48713 26.9528 11.1585 26.9301 12.8306C26.9301 13.4706 26.9301 13.9907 26.9301 14.3407V14.7606V14.9007" fill="#263238"/>
<path d="M17.01 2.00073C16.6162 2.60385 16.2813 3.24346 16.01 3.91072C16.01 4.13072 16.09 5.39073 16.09 5.39073H14.27L16.09 2.34073" fill="#263238"/>
<path d="M25.3101 1.26062C25.3101 1.26062 25.4901 2.26061 25.7301 3.44061C25.9701 4.62061 26.1801 5.62061 26.1901 5.61061C26.2001 5.60061 26.0201 4.61062 25.7701 3.43062C25.5201 2.25062 25.3301 1.26062 25.3101 1.26062Z" fill="#455A64"/>
<path d="M26.9498 1.61073C28.2583 1.60525 29.5621 1.76654 30.8298 2.09073C32.7661 2.51992 34.5981 3.32886 36.2198 4.47073C36.0735 4.45568 35.9261 4.45568 35.7798 4.47073C35.6291 4.46641 35.4793 4.49364 35.3398 4.55072C34.9551 4.82162 34.6704 5.21175 34.5298 5.66073L27.8598 5.49072C27.7398 5.49072 27.5898 4.76072 27.5898 4.76072C27.5898 4.76072 28.3098 3.40072 28.0098 2.82072C27.8988 2.6635 27.747 2.53949 27.5708 2.46197C27.3947 2.38446 27.2007 2.35636 27.0098 2.38072C26.9166 2.3738 26.823 2.3738 26.7298 2.38072L26.5498 1.65072H26.9298" fill="#7D8C93"/>
<path d="M24.2298 1.72066C24.2298 1.72066 24.7598 5.27065 24.7598 5.29065H18.9398C17.7698 5.29065 16.8798 5.29065 16.8598 5.29065C16.7098 4.76514 16.5929 4.23076 16.5098 3.69064L17.3298 2.32065C19.6012 1.87074 21.9148 1.66956 24.2298 1.72066Z" fill="#7D8C93"/>
<path d="M53.0699 14.3306C53.0836 15.211 52.8359 16.0758 52.358 16.8153C51.8802 17.5549 51.1937 18.136 50.3854 18.4853C49.5771 18.8345 48.6833 18.9361 47.8173 18.7772C46.9512 18.6183 46.1518 18.206 45.5201 17.5925C44.8885 16.9791 44.453 16.192 44.2688 15.331C44.0847 14.47 44.1601 13.5736 44.4855 12.7555C44.811 11.9373 45.3718 11.2341 46.0971 10.7348C46.8224 10.2355 47.6794 9.96261 48.5599 9.95063C49.1438 9.94137 49.7238 10.0474 50.2667 10.2626C50.8096 10.4779 51.3046 10.7981 51.7236 11.205C52.1425 11.6118 52.4771 12.0973 52.7081 12.6337C52.9391 13.17 53.062 13.7467 53.0699 14.3306Z" fill="#263238"/>
<path d="M53.0599 14.3207C53.025 15.4656 52.5499 16.553 51.7336 17.3565C50.9172 18.1601 49.8224 18.6178 48.677 18.6346C47.5317 18.6513 46.424 18.2258 45.5845 17.4464C44.745 16.6671 44.2383 15.5941 44.1699 14.4507L53.0599 14.3207Z" fill="#263238"/>
<path d="M51.7397 14.4007C51.7476 15.0177 51.5724 15.6232 51.2361 16.1405C50.8999 16.6579 50.4177 17.064 49.8507 17.3074C49.2837 17.5508 48.6572 17.6206 48.0505 17.508C47.4438 17.3954 46.8842 17.1054 46.4423 16.6747C46.0004 16.244 45.6962 15.6919 45.568 15.0883C45.4399 14.4847 45.4936 13.8567 45.7224 13.2836C45.9512 12.7105 46.3448 12.2182 46.8534 11.8688C47.362 11.5194 47.9628 11.3287 48.5798 11.3207C48.9895 11.3154 49.3963 11.3909 49.7768 11.5428C50.1574 11.6947 50.5043 11.9202 50.7977 12.2062C51.0912 12.4922 51.3254 12.8332 51.487 13.2097C51.6487 13.5862 51.7345 13.9909 51.7397 14.4007Z" fill="#FAFAFA"/>
<path d="M48.5802 11.2706C48.9899 11.2654 49.3967 11.3409 49.7772 11.4928C50.1578 11.6447 50.5047 11.8701 50.7981 12.1561C51.0916 12.4421 51.3258 12.7831 51.4874 13.1597C51.6491 13.5362 51.7349 13.9409 51.7402 14.3507L45.5102 14.4407C45.5036 14.0309 45.5777 13.6239 45.7284 13.2428C45.8791 12.8617 46.1034 12.5141 46.3885 12.2197C46.6736 11.9253 47.0139 11.69 47.3899 11.5272C47.766 11.3643 48.1704 11.2772 48.5802 11.2706Z" fill="#E0E0E0"/>
<path d="M50.52 14.4006C50.5259 14.7768 50.42 15.1462 50.2158 15.4621C50.0115 15.778 49.7181 16.0262 49.3726 16.1752C49.0272 16.3242 48.6453 16.3673 48.2753 16.299C47.9054 16.2307 47.5641 16.0541 47.2946 15.7916C47.0251 15.5291 46.8395 15.1926 46.7615 14.8246C46.6835 14.4565 46.7165 14.0736 46.8563 13.7244C46.9961 13.3751 47.2365 13.0753 47.5469 12.8628C47.8573 12.6502 48.2238 12.5346 48.6 12.5306C48.849 12.5267 49.0964 12.572 49.3279 12.6639C49.5593 12.7559 49.7704 12.8927 49.9488 13.0664C50.1272 13.2402 50.2695 13.4475 50.3675 13.6765C50.4656 13.9055 50.5174 14.1516 50.52 14.4006Z" fill="#263238"/>
<path d="M16.49 14.4006C16.5037 15.3127 16.2467 16.2083 15.7512 16.9742C15.2558 17.7401 14.5442 18.3418 13.7067 18.7031C12.8692 19.0644 11.9433 19.1692 11.0462 19.0041C10.1491 18.839 9.32113 18.4115 8.6671 17.7757C8.01307 17.1399 7.56234 16.3243 7.37199 15.4322C7.18165 14.5401 7.26024 13.6117 7.59779 12.7643C7.93535 11.9169 8.51671 11.1886 9.2683 10.6718C10.0199 10.1549 10.9079 9.87261 11.82 9.86063C13.0402 9.84724 14.2161 10.3172 15.0911 11.1678C15.966 12.0184 16.4689 13.1806 16.49 14.4006Z" fill="#263238"/>
<path d="M16.4899 14.4006C16.5263 15.0222 16.4365 15.6447 16.2257 16.2305C16.015 16.8164 15.6878 17.3535 15.2638 17.8095C14.8398 18.2654 14.3279 18.6308 13.7588 18.8835C13.1898 19.1361 12.5754 19.2709 11.9529 19.2797C11.3303 19.2885 10.7125 19.1711 10.1365 18.9346C9.56057 18.698 9.03853 18.3473 8.60184 17.9035C8.16516 17.4597 7.8229 16.932 7.59571 16.3524C7.36852 15.7727 7.2611 15.153 7.27994 14.5306L16.4899 14.4006Z" fill="#263238"/>
<path d="M15.1302 14.4006C15.138 15.0394 14.9563 15.6661 14.608 16.2016C14.2596 16.7371 13.7603 17.1573 13.1732 17.409C12.5861 17.6607 11.9375 17.7327 11.3095 17.6158C10.6814 17.499 10.1022 17.1985 9.64489 16.7524C9.18763 16.3063 8.87292 15.7347 8.74054 15.1097C8.60815 14.4848 8.66404 13.8346 8.90115 13.2414C9.13826 12.6483 9.54593 12.1387 10.0726 11.7772C10.5993 11.4158 11.2214 11.2186 11.8602 11.2106C12.7161 11.2026 13.5403 11.5336 14.153 12.1312C14.7657 12.7289 15.117 13.5448 15.1302 14.4006Z" fill="#FAFAFA"/>
<path d="M11.8398 11.2107C12.266 11.2014 12.6898 11.2769 13.0866 11.4326C13.4835 11.5884 13.8454 11.8215 14.1514 12.1182C14.4575 12.415 14.7016 12.7695 14.8695 13.1613C15.0375 13.5532 15.126 13.9744 15.1298 14.4007L8.66983 14.4907C8.65645 13.6357 8.98261 12.8104 9.57684 12.1955C10.1711 11.5806 10.9849 11.2265 11.8398 11.2107Z" fill="#E0E0E0"/>
<path d="M13.8502 14.4007C13.8621 14.7986 13.7551 15.191 13.5427 15.5277C13.3303 15.8644 13.0223 16.1301 12.6581 16.2907C12.2938 16.4513 11.8899 16.4996 11.4981 16.4293C11.1062 16.359 10.7443 16.1734 10.4586 15.8963C10.1728 15.6191 9.97629 15.263 9.89413 14.8735C9.81197 14.484 9.84792 14.0788 9.99738 13.7098C10.1468 13.3409 10.403 13.0249 10.7331 12.8024C11.0631 12.5798 11.4521 12.4609 11.8502 12.4607C12.3704 12.4605 12.8702 12.6629 13.2436 13.0251C13.617 13.3873 13.8346 13.8807 13.8502 14.4007Z" fill="#263238"/>
<path d="M4.46002 6.80066C4.46002 6.80066 4.57002 6.99068 4.46002 7.10068C4.35002 7.21068 3.46004 8.46066 2.92004 8.49066C2.38004 8.52066 1.04004 8.49066 1.04004 8.49066L1.14005 6.80066H4.46002Z" fill="white"/>
<path d="M0.339844 13.1707L0.809844 13.6607L0.339844 13.1707Z" fill="#B2B2B2"/>
<path d="M0.349823 13.1706L4.34982 13.7206C4.34982 13.7206 4.39983 14.0106 3.94983 14.0706H3.84982C3.18982 14.0706 0.789816 13.6506 0.779816 13.6506L0.319824 13.1606" fill="#B27424"/>
<path d="M40.8098 14.1706C41.4815 14.3087 42.1333 14.5304 42.7498 14.8306H40.7498L40.7999 14.2106M26.9898 13.5206C32.6298 13.7806 39.0899 14.1106 39.9099 14.1206C40.2017 14.121 40.4928 14.1478 40.7798 14.2006V14.8306C37.7198 14.7506 31.7798 14.6006 26.9998 14.4506V14.3206C26.9998 14.1006 26.9998 13.8306 26.9998 13.5206M18.5499 13.1706C19.4599 13.1706 23.0098 13.3306 26.9698 13.5106C26.9698 13.8306 26.9698 14.1006 26.9698 14.3106V14.4006C23.4498 14.2806 20.6099 14.1606 20.1099 14.0706C19.4351 13.9529 18.8153 13.6237 18.3398 13.1306C18.3398 13.1306 18.4099 13.1306 18.5699 13.1306" fill="#B27424"/>
<path d="M40.7898 14.1606L40.7397 14.7806V14.1506" fill="#1B2327"/>
<path d="M36.8499 4.32068L35.8999 5.90068H39.3999L36.8499 4.32068Z" fill="#263238"/>
<path d="M38.0201 5.33072C38.0843 5.37919 38.1364 5.44191 38.1722 5.51392C38.2081 5.58593 38.2268 5.66528 38.2268 5.74573C38.2268 5.82617 38.2081 5.90553 38.1722 5.97754C38.1364 6.04955 38.0843 6.11226 38.0201 6.16074C37.1605 6.40559 36.2497 6.40559 35.3901 6.16074C35.2678 5.98646 35.2153 5.77262 35.2431 5.56152C35.2709 5.35042 35.3769 5.15742 35.5401 5.02072C35.8941 4.71777 36.3355 4.53562 36.8001 4.50073C37.2586 4.6922 37.6737 4.97452 38.0201 5.33072Z" fill="#FFA633"/>
<path d="M38.0198 5.33059L37.8498 5.1806C37.642 4.99403 37.4178 4.82668 37.1798 4.6806C37.097 4.63276 37.0099 4.5926 36.9198 4.5606C36.8208 4.54067 36.7188 4.54067 36.6198 4.5606C36.4013 4.60689 36.1896 4.68082 35.9898 4.78061C35.8801 4.83287 35.7762 4.89656 35.6798 4.97061C35.5835 5.05156 35.4994 5.14584 35.4298 5.25061C35.3595 5.3611 35.3087 5.48287 35.2798 5.61059C35.2446 5.745 35.2446 5.88619 35.2798 6.0206C35.3008 6.08666 35.3348 6.14785 35.3798 6.20059H35.4698C35.5976 6.23682 35.728 6.26357 35.8598 6.28061C36.1029 6.29499 36.3467 6.29499 36.5898 6.28061C36.8231 6.28061 37.0431 6.28061 37.2498 6.28061C37.4422 6.26845 37.633 6.23832 37.8198 6.19061L37.9498 6.14059L38.0498 6.07061C38.1027 6.0126 38.1435 5.94459 38.1698 5.8706C38.2155 5.75495 38.2155 5.62624 38.1698 5.51059C38.1589 5.47309 38.1455 5.43636 38.1298 5.4006L38.1798 5.4606C38.2306 5.51458 38.2683 5.57962 38.2898 5.6506C38.325 5.76119 38.325 5.88 38.2898 5.9906C38.263 6.06522 38.2178 6.13187 38.1584 6.18432C38.0989 6.23677 38.0272 6.27334 37.9498 6.29061C37.7661 6.33486 37.5786 6.36163 37.3898 6.3706C37.1701 6.3859 36.9495 6.3859 36.7298 6.3706C36.4867 6.38499 36.2429 6.38499 35.9998 6.3706C35.8741 6.36182 35.75 6.33832 35.6298 6.30059H35.5398C35.4973 6.25354 35.4635 6.19938 35.4398 6.14059C35.4099 6.01231 35.4099 5.87889 35.4398 5.75061C35.4681 5.6289 35.519 5.51358 35.5898 5.41061C35.6531 5.30421 35.7343 5.20948 35.8298 5.1306C35.9238 5.06115 36.0243 5.00088 36.1298 4.9506C36.3268 4.85246 36.535 4.77858 36.7498 4.7306C36.8414 4.7055 36.9381 4.7055 37.0298 4.7306C37.1178 4.75566 37.2019 4.79267 37.2798 4.8406C37.5178 4.98382 37.7451 5.14424 37.9598 5.3206L38.1298 5.47061L38.0198 5.33059Z" fill="#263238"/>
<path d="M58.7402 9.7207V10.3107L58.8302 10.5507C58.7765 10.4331 58.7395 10.3085 58.7202 10.1807C58.7202 10.0207 58.7202 9.8707 58.7202 9.7207" fill="#B2B2B2"/>
<path d="M41.2899 6.18066C41.2899 6.18066 43.6199 6.30065 47.2899 6.67065C50.6723 7.02093 54.0182 7.66334 57.2899 8.59067C57.8675 8.84658 58.3776 9.23346 58.7798 9.72067C58.7798 9.87067 58.7798 10.0207 58.7798 10.1807C58.7991 10.3085 58.8362 10.433 58.8899 10.5507C57.1484 9.61013 55.3156 8.84954 53.4199 8.28067L53.0898 8.21066C52.7698 8.15066 52.3099 8.06067 51.7299 7.97067C51.1499 7.88067 50.5098 7.78067 49.7798 7.69067C45.8798 7.10067 40.6099 6.35068 40.6099 6.35068L41.3299 6.18066" fill="#B27424"/>
<path d="M49.7397 7.69067C50.4697 7.78067 51.1298 7.88067 51.6898 7.97067C52.2498 8.06067 52.6898 8.15066 53.0498 8.21066L53.3798 8.28067C52.6898 8.15067 51.3297 7.94067 49.7397 7.69067Z" fill="#1B2327"/>
<path d="M57.1298 8.66065C57.5065 8.86412 57.8079 9.18309 57.9898 9.57065C58.1498 9.97065 58.1098 10.2406 57.9898 10.2706C57.1262 10.3519 56.2557 10.3216 55.3998 10.1806C54.746 9.60532 54.1344 8.98373 53.5698 8.32065C54.7662 8.27852 55.963 8.39282 57.1298 8.66065Z" fill="white"/>
<path d="M7.59 11.4006H7.52002L7.30002 11.3506L6.48999 11.1706C5.80999 11.0206 4.87001 10.8206 3.82001 10.6306C2.77001 10.4406 1.82 10.3106 1.13 10.2306C0.780005 10.1806 0.499998 10.1506 0.309998 10.1406H0.0800171H0.300018L1.12 10.2506C1.81 10.3406 2.77 10.4806 3.81 10.6706C4.85 10.8606 5.80999 11.0506 6.48999 11.1906L7.30002 11.3606H7.52002L7.59 11.4006Z" fill="#263238"/>
<path d="M1.03976 8.59067C1.03976 8.59067 1.03976 8.49066 1.03976 8.33066V7.69067V7.06067C1.04319 6.99738 1.04319 6.93395 1.03976 6.87067V6.80066C1.01656 6.88594 0.999823 6.97286 0.989746 7.06067C0.989746 7.22067 0.989746 7.45067 0.989746 7.69067C0.989746 7.93067 0.989746 8.16066 0.989746 8.33066C0.99598 8.41901 1.01278 8.50631 1.03976 8.59067Z" fill="#263238"/>
</svg>
