<?xml version="1.0" encoding="utf-8"?>
<!-- Generator: Adobe Illustrator 27.5.0, SVG Export Plug-In . SVG Version: 6.00 Build 0)  -->
<svg version="1.1" id="Layer_1" xmlns="http://www.w3.org/2000/svg" xmlns:xlink="http://www.w3.org/1999/xlink" x="0px" y="0px"
	 viewBox="0 0 512 512" style="enable-background:new 0 0 512 512;" xml:space="preserve">
<g>
	<path d="M398.03,95.99c26.51,0,47.99-21.49,47.99-47.99S424.53,0,398.03,0s-47.99,21.49-47.99,47.99S371.52,95.99,398.03,95.99z
		 M313.74,200.47c1-0.4,1.9-0.8,2.9-1.2l-16.9,63.49c-5.6,21.1-0.1,43.59,14.7,59.69l70.69,77.09l22,88.09
		c4.3,17.1,21.7,27.6,38.79,23.3s27.6-21.7,23.3-38.79l-23-92.09c-1.9-7.8-5.8-14.9-11.2-20.8l-49.49-53.99l19.3-65.49l9.6,23
		c4.4,10.6,12.5,19.3,22.8,24.5l26.7,13.3c15.8,7.9,34.99,1.5,42.89-14.3c7.9-15.8,1.5-34.99-14.3-42.89l-21.5-10.7l-15.3-36.79
		c-17.2-41.09-57.39-67.89-101.99-67.89c-22.8,0-45.29,4.8-66.09,14l-8,3.5c-32.9,14.6-58.09,42.39-69.39,76.49l-2.6,7.8
		c-5.6,16.8,3.5,34.89,20.2,40.49c16.7,5.6,34.89-3.5,40.49-20.2l2.6-7.8c5.7-17.1,18.3-30.9,34.69-38.19l8-3.5L313.74,200.47z
		 M283.74,335.55l-25,62.39l-59.39,59.39c-12.5,12.5-12.5,32.8,0,45.29c12.5,12.5,32.8,12.5,45.29,0l61.69-61.69
		c4.6-4.6,8.2-10.1,10.6-16.1l14.5-36.19l-40.69-44.39c-2.5-2.7-4.8-5.6-7-8.6L283.74,335.55z M222.05,274.06
		c-7.7-4.4-17.4-1.8-21.9,5.9l-32,55.39l-54.39-31.4c-15.3-8.8-34.89-3.6-43.69,11.7L6.08,426.54c-8.8,15.3-3.6,34.89,11.7,43.69
		l55.39,32c15.3,8.8,34.89,3.6,43.69-11.7l63.99-110.88c1.5-2.6,2.6-5.2,3.3-8l43.79-75.69
		C232.35,288.26,229.75,278.56,222.05,274.06z"/>
</g>
</svg>
