<?xml version="1.0" encoding="utf-8"?>
<!-- Generator: Adobe Illustrator 26.0.0, SVG Export Plug-In . SVG Version: 6.00 Build 0)  -->
<svg version="1.1" id="Layer_1" xmlns="http://www.w3.org/2000/svg" xmlns:xlink="http://www.w3.org/1999/xlink" x="0px" y="0px"
	 viewBox="0 0 121.6 142.9" style="enable-background:new 0 0 121.6 142.9;" xml:space="preserve">
<style type="text/css">
	.st0{fill:#FFFFFF;}
</style>
<g>
	<path d="M13.5,142.9c-4.3-6-5.9-13-7-20.2c-0.2-1.5-0.4-3-0.6-4.6c-0.1-0.4-0.3-0.8-0.5-1.1c-3.5-3.5-4.8-7.9-5.2-12.6
		c-0.6-6.2,0.2-12.2,3-17.8c0.3-0.7,0.8-1.4,1.2-2.2c-1.7-0.7-2.9-1.8-3.4-3.6c-0.5-1.9-0.1-3.7,0.8-5.4c1.4-2.5,3.7-3.1,5.9-1.9
		c-0.7,0.6-1.8,1.1-2.2,1.9C5,76.4,5,77.7,5.3,78.6c0.5,1.6,1.7,1.8,2.9,0.7c5.3-5.1,11.6-8.5,18.6-10.9c1.6,2.1,3.1,4.2,4.7,6.3
		c2-0.5,4-1.1,6-1.6c8.7-1.9,17.4-1.5,25.9,1.1c1.1,0.4,1.7,0.2,2.3-0.9c0.8-1.6,1.8-3.2,2.6-4.8c0-0.1,0.1-0.1,0.3-0.3
		c5.1,1.7,9.9,4.1,14,8C87,71.8,91.8,67.9,99,68c-3,3.3-3.2,7.2-3.5,11c0,0.4,0.5,1,1,1.2c5,2.5,9.1,6,12.3,10.5
		c1.1,1.6,2.1,3.3,3.1,5c0.4,0.7,0.9,1.1,1.7,1.1c1.4-0.1,2.9-0.1,4.3-0.1c1.1,0,2.2,0,3.7,0c-0.2,3.5-0.3,6.8-0.7,10.1
		c-0.3,2.9-2.6,4.8-4.6,6.6c-9.3,8.2-20.2,13.3-32.1,16.4c-1.3,0.3-1.8,0.9-1.9,2.1c-0.4,3.7-0.2,7.4,0.5,11.1c-5.3,0-10.6,0-15.9,0
		c-1.6-2.4-3.2-4.8-4.6-7.2c-0.5-0.9-1.1-1.3-2.2-1.2c-8.2,0.6-16.4,0.4-24.6-0.8c-2.1-0.3-4.3-0.7-6.8-1.2c0.3,3.6,0.6,7,0.8,10.4
		C24.1,142.9,18.8,142.9,13.5,142.9z M101.2,93.7c0-2.1-1.8-3.9-3.9-3.9c-2.1,0-3.8,1.7-3.9,3.8c0,2.1,1.7,3.9,3.9,4
		C99.4,97.6,101.2,95.9,101.2,93.7z"/>
	<path d="M51.1,68.7c4.8-1.2,5.8-5.1,5.4-9c-0.3-2.8-2.3-4.1-4.7-5c-1.1-0.4-2.6-0.5-3.1-1.3c-0.6-0.9-0.2-2.3-0.2-3.5
		c0-1.5,0-3.1,0-4.6c0-0.1,0-0.2,0.1-0.3c2.2-0.3,3.1,0.6,4.4,4c0.9,0,1.9,0,2.9,0c0.3-3.7-2.1-6-7.3-7.1c0-0.7-0.1-1.4-0.1-2.2
		c-0.5,0-1,0-1.6,0c0,0.8-0.1,1.5-0.1,2.3c-2.2,0.2-4.1,0.7-5.7,2.3c-2.9,3.1-3.1,9.4,2.8,11.4c0.9,0.3,2.3,0.3,2.7,1
		c0.5,0.9,0.2,2.1,0.2,3.3c0,2.1,0,4.2,0,6.3c-3,0.1-4-1.1-5.1-5.7c-0.9,0-1.9,0-2.9,0C38,64.2,39.9,67,44.4,69
		c-2.1,0.3-4.1,0.6-6,1c-1.4,0.3-2.7,0.6-4,1c-0.8,0.3-1.3,0.1-1.9-0.5c-9.5-9.8-6.6-26.6,5.6-32.7c12.9-6.5,28.1,1.4,30.1,15.7
		c0.9,6.3-0.9,12-5.2,16.7c-0.3,0.3-0.9,0.7-1.3,0.6C58,70.1,54.4,69.4,51.1,68.7z"/>
	<path d="M84.4,21.7c8.9,0,16.1,7.1,16.1,16c0.1,8.8-7.1,16.1-16,16.2c-8.9,0.1-16.2-7.2-16.2-16.1C68.3,28.9,75.5,21.7,84.4,21.7z
		 M85.1,47.8c0.6-0.1,1.2-0.2,1.8-0.4c2.7-0.6,4.2-2.4,4.4-5.5c0.2-2.5-0.8-4.2-3.4-5.2c-0.7-0.3-1.4-0.4-2.1-0.7
		c-0.3-0.1-0.7-0.5-0.7-0.8c-0.1-2,0-4.1,0-6.2c1.5,0,2.7,0.6,3,1.8c0.4,1.7,1.5,1.5,3,1.3c-0.4-1-0.6-2-1.1-2.8
		c-1.1-1.8-3-2.2-4.8-2.5c-0.1-0.6-0.1-1.2-0.2-1.7c-1,0-1,0-1.3,1.7c-0.4,0.1-0.9,0.2-1.3,0.3c-2.5,0.5-4.2,2.5-4.4,5.1
		c-0.2,2.5,1.1,4.4,3.6,5.3c0.5,0.2,1.1,0.3,1.6,0.5c0.3,0.1,0.7,0.4,0.7,0.7c0.1,2.3,0,4.6,0,6.9c-2.5-0.1-3.1-0.8-4-4.3
		c-0.7,0-1.5,0-2.3,0c-0.1,3.9,1.2,5.4,6.2,6.8c0,0.6-0.1,1.2,0,1.7c0.1,0.4,0.5,0.7,0.8,1c0.1-0.1,0.2-0.2,0.4-0.3
		C85,49.6,85.1,48.7,85.1,47.8z"/>
	<path d="M53.5,24.1c-6.6,0-12.1-5.4-12.1-12C41.4,5.5,46.9,0,53.5,0c6.6,0,11.9,5.4,12,12C65.6,18.6,60.2,24,53.5,24.1z M58.3,7.8
		c-0.1-2.8-2-3.6-3.9-3.9c-0.4-0.6-0.6-1-0.8-1.4c-0.3,0.4-0.5,0.8-0.8,1.2C52,4,51.1,4.2,50.4,4.7c-1.4,1-2,2.4-1.7,4.1
		c0.2,1.6,1.3,2.5,2.7,3c0.6,0.2,1.5,0.6,1.5,1c0.2,1.6,0.1,3.3,0.1,5c-2.4,0.1-2.6-1.7-3-3.2c-0.6,0-1.1,0-1.6,0
		c-0.3,2.9,0.6,3.9,4.5,5.1c0,0.3,0,0.7,0.1,1.1c0.1,0.3,0.3,0.5,0.5,0.8c0.2-0.3,0.4-0.5,0.5-0.8c0.1-0.4,0.1-0.8,0.1-1.2
		c0.6-0.1,1.1-0.2,1.6-0.4c1.9-0.6,3-2,3.1-4.2c0.1-1.9-0.7-3-2.6-3.8c-0.5-0.2-1-0.3-1.4-0.5c-0.3-0.1-0.6-0.5-0.6-0.7
		c-0.1-1.5,0-2.9,0-4.4c0.1-0.1,0.3-0.2,0.4-0.3c0.6,0.5,1.5,0.9,1.8,1.6C56.6,8.1,57.3,8.1,58.3,7.8z"/>
	<path d="M48.5,57.2c3.4,0.5,5,2.3,4.8,4.9c-0.2,2.7-1.9,4.3-4.8,4.2C48.5,63.4,48.5,60.3,48.5,57.2z"/>
	<path d="M46.7,45c0,2.8,0,5.5,0,8.2c-2.7-0.3-4.5-1.9-4.4-4.1C42.5,46.5,44.1,44.9,46.7,45z"/>
	<path class="st0" d="M101.2,93.7c0,2.1-1.8,3.9-3.9,3.9c-2.1,0-3.9-1.8-3.9-4c0-2.1,1.8-3.8,3.9-3.8
		C99.4,89.8,101.2,91.6,101.2,93.7z"/>
	<path class="st0" d="M85.1,47.8c0,0.9-0.1,1.7-0.1,2.6c-0.1,0.1-0.2,0.2-0.4,0.3c-0.3-0.3-0.7-0.6-0.8-1c-0.1-0.6,0-1.2,0-1.7
		c-5-1.4-6.4-2.8-6.2-6.8c0.8,0,1.5,0,2.3,0c0.8,3.5,1.5,4.2,4,4.3c0-2.3,0-4.6,0-6.9c0-0.2-0.4-0.5-0.7-0.7
		c-0.5-0.2-1.1-0.3-1.6-0.5c-2.5-1-3.8-2.9-3.6-5.3c0.2-2.6,1.9-4.5,4.4-5.1c0.5-0.1,0.9-0.2,1.3-0.3c0.3-1.7,0.3-1.7,1.3-1.7
		c0.1,0.5,0.1,1.1,0.2,1.7c1.9,0.3,3.8,0.7,4.8,2.5c0.5,0.8,0.7,1.8,1.1,2.8c-1.5,0.2-2.6,0.5-3-1.3c-0.3-1.3-1.5-1.8-3-1.8
		c0,2.1,0,4.1,0,6.2c0,0.3,0.4,0.7,0.7,0.8c0.7,0.3,1.4,0.5,2.1,0.7c2.6,1.1,3.7,2.7,3.4,5.2c-0.3,3.1-1.7,4.9-4.4,5.5
		C86.3,47.6,85.8,47.7,85.1,47.8z M85.2,45.6c2.3-0.1,3.7-1.4,3.7-3.5c0-2-1.3-3.3-3.8-3.5c0,2,0,4.1,0,6.1
		C85.1,45,85.1,45.3,85.2,45.6z M83.7,29.1c-2-0.1-3.2,1.1-3.3,3c-0.1,1.7,1.1,2.9,3.4,3.2c0-1.8,0-3.5,0-5.3
		C83.8,29.7,83.7,29.4,83.7,29.1z"/>
	<path class="st0" d="M58.3,7.8c-1,0.3-1.7,0.3-2.1-0.9c-0.3-0.7-1.2-1.1-1.8-1.6c-0.1,0.1-0.3,0.2-0.4,0.3c0,1.5,0,2.9,0,4.4
		c0,0.3,0.3,0.6,0.6,0.7c0.4,0.2,1,0.3,1.4,0.5c1.9,0.8,2.7,1.9,2.6,3.8c-0.1,2.2-1.1,3.6-3.1,4.2c-0.5,0.1-1,0.2-1.6,0.4
		c0,0.4,0,0.8-0.1,1.2c-0.1,0.3-0.3,0.5-0.5,0.8c-0.2-0.3-0.4-0.5-0.5-0.8c-0.1-0.3-0.1-0.7-0.1-1.1c-3.8-1.2-4.7-2.2-4.5-5.1
		c0.5,0,1,0,1.6,0c0.4,1.5,0.6,3.3,3,3.2c0-1.7,0.1-3.4-0.1-5c0-0.4-1-0.8-1.5-1c-1.4-0.6-2.5-1.4-2.7-3c-0.2-1.7,0.3-3.2,1.7-4.1
		C51.1,4.2,52,4,52.7,3.7c0.3-0.4,0.6-0.8,0.8-1.2c0.2,0.4,0.5,0.7,0.8,1.4C56.3,4.2,58.2,5,58.3,7.8z M54.1,17.9
		c1.7-0.1,2.6-0.9,2.7-2.3c0.1-1.6-0.7-2.5-2.7-2.9C54.1,14.4,54.1,16.2,54.1,17.9z M53,10.3c0-1.4,0-2.6,0-3.9
		c0-0.3-0.1-0.5-0.1-0.8c-1.4,0.1-2.2,0.7-2.4,2C50.3,8.9,51.1,9.8,53,10.3z"/>
	<path d="M85.2,45.6c0-0.3-0.1-0.6-0.1-0.9c0-2,0-4,0-6.1c2.5,0.2,3.9,1.6,3.8,3.5C88.8,44.2,87.5,45.5,85.2,45.6z"/>
	<path d="M83.7,29.1c0,0.3,0.1,0.6,0.1,0.9c0,1.8,0,3.5,0,5.3c-2.3-0.3-3.5-1.5-3.4-3.2C80.5,30.2,81.7,29,83.7,29.1z"/>
	<path d="M54.1,17.9c0-1.7,0-3.5,0-5.2c2.1,0.4,2.8,1.3,2.7,2.9C56.7,17.1,55.8,17.8,54.1,17.9z"/>
	<path d="M53,10.3c-1.9-0.5-2.7-1.3-2.5-2.6c0.2-1.3,1-2,2.4-2c0,0.3,0.1,0.5,0.1,0.8C53,7.7,53,8.9,53,10.3z"/>
</g>
</svg>
